<?xml version="1.0" standalone="no"?>
 <!DOCTYPE svg PUBLIC "-//W3C//DTD SVG 1.1//EN" 
 "http://www.w3.org/Graphics/SVG/1.1/DTD/svg11.dtd"> 
<svg xmlns="http://www.w3.org/2000/svg" version="1.1" 
    width="41.9989cm" height="29.7002cm" viewBox="0 0 165350 116930 ">
<title>SVG Picture created as ValvesControllerNano_v2_mini--brd.svg date 2016/02/17 12:31:10 </title>
  <desc>Picture generated by PCBNEW </desc>
<g style="fill:#000000; fill-opacity:1;stroke:#000000; stroke-opacity:1;
stroke-linecap:round; stroke-linejoin:round; "
 transform="translate(0 0) scale(1 1)">
</g>
<g style="fill:#000000; fill-opacity:0.0; 
stroke:#000000; stroke-width:39.3701; stroke-opacity:1; 
stroke-linecap:round; stroke-linejoin:round;">
<path d="M4000 4000
L161350 4000
L161350 112930
L4000 112930
L4000 4000
" />
<path d="M4700 4700
L160650 4700
L160650 112230
L4700 112230
L4700 4700
" />
<path d="M26470 4000
L26470 4700
" />
<path d="M15382 4552
L15097 4552
" />
<path d="M15240 4552
L15240 4052
L15192 4123
L15144 4171
L15097 4195
" />
<path d="M26470 112930
L26470 112230
" />
<path d="M15382 112782
L15097 112782
" />
<path d="M15240 112782
L15240 112282
L15192 112353
L15144 112401
L15097 112425
" />
<path d="M48940 4000
L48940 4700
" />
<path d="M37567 4100
L37590 4076
L37638 4052
L37757 4052
L37805 4076
L37829 4100
L37852 4147
L37852 4195
L37829 4266
L37543 4552
L37852 4552
" />
<path d="M48940 112930
L48940 112230
" />
<path d="M37567 112330
L37590 112306
L37638 112282
L37757 112282
L37805 112306
L37829 112330
L37852 112377
L37852 112425
L37829 112496
L37543 112782
L37852 112782
" />
<path d="M71410 4000
L71410 4700
" />
<path d="M60013 4052
L60322 4052
L60156 4242
L60227 4242
L60275 4266
L60299 4290
L60322 4338
L60322 4457
L60299 4504
L60275 4528
L60227 4552
L60084 4552
L60037 4528
L60013 4504
" />
<path d="M71410 112930
L71410 112230
" />
<path d="M60013 112282
L60322 112282
L60156 112472
L60227 112472
L60275 112496
L60299 112520
L60322 112568
L60322 112687
L60299 112734
L60275 112758
L60227 112782
L60084 112782
L60037 112758
L60013 112734
" />
<path d="M93880 4000
L93880 4700
" />
<path d="M82745 4219
L82745 4552
" />
<path d="M82626 4028
L82507 4385
L82816 4385
" />
<path d="M93880 112930
L93880 112230
" />
<path d="M82745 112449
L82745 112782
" />
<path d="M82626 112258
L82507 112615
L82816 112615
" />
<path d="M116350 4000
L116350 4700
" />
<path d="M105239 4052
L105000 4052
L104977 4290
L105000 4266
L105048 4242
L105167 4242
L105215 4266
L105239 4290
L105262 4338
L105262 4457
L105239 4504
L105215 4528
L105167 4552
L105048 4552
L105000 4528
L104977 4504
" />
<path d="M116350 112930
L116350 112230
" />
<path d="M105239 112282
L105000 112282
L104977 112520
L105000 112496
L105048 112472
L105167 112472
L105215 112496
L105239 112520
L105262 112568
L105262 112687
L105239 112734
L105215 112758
L105167 112782
L105048 112782
L105000 112758
L104977 112734
" />
<path d="M138820 4000
L138820 4700
" />
<path d="M127685 4052
L127590 4052
L127542 4076
L127518 4100
L127470 4171
L127447 4266
L127447 4457
L127470 4504
L127494 4528
L127542 4552
L127637 4552
L127685 4528
L127709 4504
L127732 4457
L127732 4338
L127709 4290
L127685 4266
L127637 4242
L127542 4242
L127494 4266
L127470 4290
L127447 4338
" />
<path d="M138820 112930
L138820 112230
" />
<path d="M127685 112282
L127590 112282
L127542 112306
L127518 112330
L127470 112401
L127447 112496
L127447 112687
L127470 112734
L127494 112758
L127542 112782
L127637 112782
L127685 112758
L127709 112734
L127732 112687
L127732 112568
L127709 112520
L127685 112496
L127637 112472
L127542 112472
L127494 112496
L127470 112520
L127447 112568
" />
<path d="M149893 4052
L150226 4052
L150012 4552
" />
<path d="M149893 112282
L150226 112282
L150012 112782
" />
<path d="M4000 25780
L4700 25780
" />
<path d="M4230 14949
L4469 14949
" />
<path d="M4183 15092
L4350 14592
L4516 15092
" />
<path d="M161350 25780
L160650 25780
" />
<path d="M160880 14949
L161119 14949
" />
<path d="M160833 15092
L161000 14592
L161166 15092
" />
<path d="M4000 47560
L4700 47560
" />
<path d="M4385 36610
L4457 36634
L4480 36658
L4504 36705
L4504 36777
L4480 36824
L4457 36848
L4409 36872
L4219 36872
L4219 36372
L4385 36372
L4433 36396
L4457 36420
L4480 36467
L4480 36515
L4457 36562
L4433 36586
L4385 36610
L4219 36610
" />
<path d="M161350 47560
L160650 47560
" />
<path d="M161035 36610
L161107 36634
L161130 36658
L161154 36705
L161154 36777
L161130 36824
L161107 36848
L161059 36872
L160869 36872
L160869 36372
L161035 36372
L161083 36396
L161107 36420
L161130 36467
L161130 36515
L161107 36562
L161083 36586
L161035 36610
L160869 36610
" />
<path d="M4000 69340
L4700 69340
" />
<path d="M4504 58604
L4480 58628
L4409 58652
L4361 58652
L4290 58628
L4242 58580
L4219 58533
L4195 58438
L4195 58366
L4219 58271
L4242 58223
L4290 58176
L4361 58152
L4409 58152
L4480 58176
L4504 58200
" />
<path d="M161350 69340
L160650 69340
" />
<path d="M161154 58604
L161130 58628
L161059 58652
L161011 58652
L160940 58628
L160892 58580
L160869 58533
L160845 58438
L160845 58366
L160869 58271
L160892 58223
L160940 58176
L161011 58152
L161059 58152
L161130 58176
L161154 58200
" />
<path d="M4000 91120
L4700 91120
" />
<path d="M4219 80432
L4219 79932
L4338 79932
L4409 79956
L4457 80003
L4480 80051
L4504 80146
L4504 80218
L4480 80313
L4457 80360
L4409 80408
L4338 80432
L4219 80432
" />
<path d="M161350 91120
L160650 91120
" />
<path d="M160869 80432
L160869 79932
L160988 79932
L161059 79956
L161107 80003
L161130 80051
L161154 80146
L161154 80218
L161130 80313
L161107 80360
L161059 80408
L160988 80432
L160869 80432
" />
<path d="M4242 101950
L4409 101950
" />
<path d="M4480 102212
L4242 102212
L4242 101712
L4480 101712
" />
<path d="M160892 101950
L161059 101950
" />
<path d="M161130 102212
L160892 102212
L160892 101712
L161130 101712
" />
<path d="M127800 110672
L127875 110072
L128017 110072
L128100 110101
L128150 110158
L128171 110215
L128185 110330
L128175 110415
L128132 110530
L128096 110587
L128032 110644
L127942 110672
L127800 110672
" />
<path d="M128657 110672
L128696 110358
L128675 110301
L128621 110272
L128507 110272
L128446 110301
" />
<path d="M128660 110644
L128600 110672
L128457 110672
L128403 110644
L128382 110587
L128389 110530
L128425 110472
L128485 110444
L128628 110444
L128689 110415
" />
<path d="M128907 110272
L129135 110272
" />
<path d="M129017 110072
L128953 110587
L128975 110644
L129028 110672
L129085 110672
" />
<path d="M129517 110644
L129457 110672
L129342 110672
L129289 110644
L129267 110587
L129296 110358
L129332 110301
L129392 110272
L129507 110272
L129560 110301
L129582 110358
L129575 110415
L129282 110472
" />
<path d="M129807 110615
L129832 110644
L129800 110672
L129775 110644
L129807 110615
L129800 110672
" />
<path d="M129846 110301
L129871 110330
L129839 110358
L129814 110330
L129846 110301
L129839 110358
" />
<path d="M130857 110672
L130514 110672
" />
<path d="M130685 110672
L130760 110072
L130692 110158
L130628 110215
L130567 110244
" />
<path d="M131132 110072
L131532 110072
L131200 110672
" />
<path d="M132107 110272
L132335 110272
" />
<path d="M132142 110672
L132207 110158
L132242 110101
L132303 110072
L132360 110072
" />
<path d="M132717 110644
L132657 110672
L132542 110672
L132489 110644
L132467 110587
L132496 110358
L132532 110301
L132592 110272
L132707 110272
L132760 110301
L132782 110358
L132775 110415
L132482 110472
" />
<path d="M133000 110672
L133075 110072
" />
<path d="M133046 110301
L133107 110272
L133221 110272
L133275 110301
L133300 110330
L133321 110387
L133300 110558
L133264 110615
L133232 110644
L133171 110672
L133057 110672
L133003 110644
" />
<path d="M134039 110130
L134071 110101
L134132 110072
L134275 110072
L134328 110101
L134353 110130
L134375 110187
L134367 110244
L134328 110330
L133942 110672
L134314 110672
" />
<path d="M134760 110072
L134817 110072
L134871 110101
L134896 110130
L134917 110187
L134932 110301
L134914 110444
L134871 110558
L134835 110615
L134803 110644
L134742 110672
L134685 110672
L134632 110644
L134607 110615
L134585 110558
L134571 110444
L134589 110301
L134632 110187
L134667 110130
L134700 110101
L134760 110072
" />
<path d="M135457 110672
L135114 110672
" />
<path d="M135285 110672
L135360 110072
L135292 110158
L135228 110215
L135167 110244
" />
<path d="M136046 110072
L135932 110072
L135871 110101
L135839 110130
L135771 110215
L135728 110330
L135700 110558
L135721 110615
L135746 110644
L135800 110672
L135914 110672
L135975 110644
L136007 110615
L136042 110558
L136060 110415
L136039 110358
L136014 110330
L135960 110301
L135846 110301
L135785 110330
L135753 110358
L135717 110415
" />
<path d="M119392 111872
L119392 111272
" />
<path d="M119735 111872
L119478 111530
" />
<path d="M119735 111272
L119392 111615
" />
<path d="M119992 111872
L119992 111472
" />
<path d="M119992 111272
L119964 111301
L119992 111330
L120021 111301
L119992 111272
L119992 111330
" />
<path d="M120621 111815
L120592 111844
L120507 111872
L120450 111872
L120364 111844
L120307 111787
L120278 111730
L120250 111615
L120250 111530
L120278 111415
L120307 111358
L120364 111301
L120450 111272
L120507 111272
L120592 111301
L120621 111330
" />
<path d="M121135 111872
L121135 111558
L121107 111501
L121050 111472
L120935 111472
L120878 111501
" />
<path d="M121135 111844
L121078 111872
L120935 111872
L120878 111844
L120850 111787
L120850 111730
L120878 111672
L120935 111644
L121078 111644
L121135 111615
" />
<path d="M121678 111872
L121678 111272
" />
<path d="M121678 111844
L121621 111872
L121507 111872
L121450 111844
L121421 111815
L121392 111758
L121392 111587
L121421 111530
L121450 111501
L121507 111472
L121621 111472
L121678 111501
" />
<path d="M122421 111558
L122621 111558
" />
<path d="M122707 111872
L122421 111872
L122421 111272
L122707 111272
" />
<path d="M122964 111815
L122992 111844
L122964 111872
L122935 111844
L122964 111815
L122964 111872
" />
<path d="M123249 111872
L123249 111272
L123392 111272
L123478 111301
L123535 111358
L123564 111415
L123592 111530
L123592 111615
L123564 111730
L123535 111787
L123478 111844
L123392 111872
L123249 111872
" />
<path d="M123849 111815
L123878 111844
L123849 111872
L123821 111844
L123849 111815
L123849 111872
" />
<path d="M124107 111701
L124392 111701
" />
<path d="M124049 111872
L124249 111272
L124449 111872
" />
<path d="M124649 111815
L124678 111844
L124649 111872
L124621 111844
L124649 111815
L124649 111872
" />
<path d="M152942 110672
L152778 110387
" />
<path d="M152600 110672
L152675 110072
L152903 110072
L152957 110101
L152982 110130
L153003 110187
L152992 110272
L152957 110330
L152925 110358
L152864 110387
L152635 110387
" />
<path d="M153432 110644
L153371 110672
L153257 110672
L153203 110644
L153182 110587
L153210 110358
L153246 110301
L153307 110272
L153421 110272
L153475 110301
L153496 110358
L153489 110415
L153196 110472
" />
<path d="M153707 110272
L153800 110672
L153992 110272
" />
<path d="M154178 110615
L154203 110644
L154171 110672
L154146 110644
L154178 110615
L154171 110672
" />
<path d="M154217 110301
L154242 110330
L154210 110358
L154185 110330
L154217 110301
L154210 110358
" />
<path d="M119364 110644
L119450 110672
L119592 110672
L119650 110644
L119678 110615
L119707 110558
L119707 110501
L119678 110444
L119650 110415
L119592 110387
L119478 110358
L119421 110330
L119392 110301
L119364 110244
L119364 110187
L119392 110130
L119421 110101
L119478 110072
L119621 110072
L119707 110101
" />
<path d="M119964 110672
L119964 110272
" />
<path d="M119964 110072
L119935 110101
L119964 110130
L119992 110101
L119964 110072
L119964 110130
" />
<path d="M120192 110272
L120507 110272
L120192 110672
L120507 110672
" />
<path d="M120964 110644
L120907 110672
L120792 110672
L120735 110644
L120707 110587
L120707 110358
L120735 110301
L120792 110272
L120907 110272
L120964 110301
L120992 110358
L120992 110415
L120707 110472
" />
<path d="M121250 110615
L121278 110644
L121250 110672
L121221 110644
L121250 110615
L121250 110672
" />
<path d="M121250 110301
L121278 110330
L121250 110358
L121221 110330
L121250 110301
L121250 110358
" />
<path d="M121964 110501
L122250 110501
" />
<path d="M121907 110672
L122107 110072
L122307 110672
" />
<path d="M122450 110072
L122821 110072
L122621 110301
L122707 110301
L122764 110330
L122792 110358
L122821 110415
L122821 110558
L122792 110615
L122764 110644
L122707 110672
L122535 110672
L122478 110644
L122450 110615
" />
<path d="M152592 111872
L152592 111272
" />
<path d="M153135 111872
L153135 111272
" />
<path d="M153135 111844
L153078 111872
L152964 111872
L152907 111844
L152878 111815
L152850 111758
L152850 111587
L152878 111530
L152907 111501
L152964 111472
L153078 111472
L153135 111501
" />
<path d="M153421 111815
L153450 111844
L153421 111872
L153392 111844
L153421 111815
L153421 111872
" />
<path d="M153421 111501
L153450 111530
L153421 111558
L153392 111530
L153421 111501
L153421 111558
" />
<path d="M154478 111872
L154135 111872
" />
<path d="M154307 111872
L154307 111272
L154249 111358
L154192 111415
L154135 111444
" />
<path d="M155164 111244
L154650 112015
" />
<path d="M155678 111872
L155335 111872
" />
<path d="M155507 111872
L155507 111272
L155449 111358
L155392 111415
L155335 111444
" />
<path d="M119389 108872
L119732 108872
" />
<path d="M119485 109472
L119560 108872
" />
<path d="M119857 109472
L119907 109072
" />
<path d="M119932 108872
L119900 108901
L119925 108930
L119957 108901
L119932 108872
L119925 108930
" />
<path d="M120107 109072
L120335 109072
" />
<path d="M120217 108872
L120153 109387
L120175 109444
L120228 109472
L120285 109472
" />
<path d="M120571 109472
L120517 109444
L120496 109387
L120560 108872
" />
<path d="M121032 109444
L120971 109472
L120857 109472
L120803 109444
L120782 109387
L120810 109158
L120846 109101
L120907 109072
L121021 109072
L121075 109101
L121096 109158
L121089 109215
L120796 109272
" />
<path d="M121321 109415
L121346 109444
L121314 109472
L121289 109444
L121321 109415
L121314 109472
" />
<path d="M121360 109101
L121385 109130
L121353 109158
L121328 109130
L121360 109101
L121353 109158
" />
<path d="M119592 106758
L119392 106758
" />
<path d="M119392 107072
L119392 106472
L119678 106472
" />
<path d="M119907 107072
L119907 106672
" />
<path d="M119907 106472
L119878 106501
L119907 106530
L119935 106501
L119907 106472
L119907 106530
" />
<path d="M120278 107072
L120221 107044
L120192 106987
L120192 106472
" />
<path d="M120735 107044
L120678 107072
L120564 107072
L120507 107044
L120478 106987
L120478 106758
L120507 106701
L120564 106672
L120678 106672
L120735 106701
L120764 106758
L120764 106815
L120478 106872
" />
<path d="M121021 107015
L121050 107044
L121021 107072
L120992 107044
L121021 107015
L121021 107072
" />
<path d="M121021 106701
L121050 106730
L121021 106758
L120992 106730
L121021 106701
L121021 106758
" />
<path d="M121678 106472
L121878 107072
L122078 106472
" />
<path d="M122535 107072
L122535 106758
L122507 106701
L122450 106672
L122335 106672
L122278 106701
" />
<path d="M122535 107044
L122478 107072
L122335 107072
L122278 107044
L122250 106987
L122250 106930
L122278 106872
L122335 106844
L122478 106844
L122535 106815
" />
<path d="M122907 107072
L122850 107044
L122821 106987
L122821 106472
" />
<path d="M123078 106672
L123221 107072
L123364 106672
" />
<path d="M123821 107044
L123764 107072
L123650 107072
L123592 107044
L123564 106987
L123564 106758
L123592 106701
L123650 106672
L123764 106672
L123821 106701
L123850 106758
L123850 106815
L123564 106872
" />
<path d="M124078 107044
L124135 107072
L124250 107072
L124307 107044
L124335 106987
L124335 106958
L124307 106901
L124250 106872
L124164 106872
L124107 106844
L124078 106787
L124078 106758
L124107 106701
L124164 106672
L124250 106672
L124307 106701
" />
<path d="M124935 107015
L124907 107044
L124821 107072
L124764 107072
L124678 107044
L124621 106987
L124592 106930
L124564 106815
L124564 106730
L124592 106615
L124621 106558
L124678 106501
L124764 106472
L124821 106472
L124907 106501
L124935 106530
" />
<path d="M125278 107072
L125221 107044
L125192 107015
L125164 106958
L125164 106787
L125192 106730
L125221 106701
L125278 106672
L125364 106672
L125421 106701
L125450 106730
L125478 106787
L125478 106958
L125450 107015
L125421 107044
L125364 107072
L125278 107072
" />
<path d="M125735 106672
L125735 107072
" />
<path d="M125735 106730
L125764 106701
L125821 106672
L125907 106672
L125964 106701
L125992 106758
L125992 107072
" />
<path d="M126192 106672
L126421 106672
" />
<path d="M126278 106472
L126278 106987
L126307 107044
L126364 107072
L126421 107072
" />
<path d="M126621 107072
L126621 106672
" />
<path d="M126621 106787
L126650 106730
L126678 106701
L126735 106672
L126792 106672
" />
<path d="M127078 107072
L127021 107044
L126992 107015
L126964 106958
L126964 106787
L126992 106730
L127021 106701
L127078 106672
L127164 106672
L127221 106701
L127250 106730
L127278 106787
L127278 106958
L127250 107015
L127221 107044
L127164 107072
L127078 107072
" />
<path d="M127621 107072
L127564 107044
L127535 106987
L127535 106472
" />
<path d="M127935 107072
L127878 107044
L127850 106987
L127850 106472
" />
<path d="M128392 107044
L128335 107072
L128221 107072
L128164 107044
L128135 106987
L128135 106758
L128164 106701
L128221 106672
L128335 106672
L128392 106701
L128421 106758
L128421 106815
L128135 106872
" />
<path d="M128678 107072
L128678 106672
" />
<path d="M128678 106787
L128707 106730
L128735 106701
L128792 106672
L128850 106672
" />
<path d="M129050 107072
L129050 106472
L129392 107072
L129392 106472
" />
<path d="M129935 107072
L129935 106758
L129907 106701
L129850 106672
L129735 106672
L129678 106701
" />
<path d="M129935 107044
L129878 107072
L129735 107072
L129678 107044
L129650 106987
L129650 106930
L129678 106872
L129735 106844
L129878 106844
L129935 106815
" />
<path d="M130221 106672
L130221 107072
" />
<path d="M130221 106730
L130250 106701
L130307 106672
L130392 106672
L130450 106701
L130478 106758
L130478 107072
" />
<path d="M130850 107072
L130792 107044
L130764 107015
L130735 106958
L130735 106787
L130764 106730
L130792 106701
L130850 106672
L130935 106672
L130992 106701
L131021 106730
L131050 106787
L131050 106958
L131021 107015
L130992 107044
L130935 107072
L130850 107072
" />
<path d="M131164 107130
L131621 107130
" />
<path d="M131707 106672
L131850 107072
L131992 106672
" />
<path d="M132192 106530
L132221 106501
L132278 106472
L132421 106472
L132478 106501
L132507 106530
L132535 106587
L132535 106644
L132507 106730
L132164 107072
L132535 107072
" />
<path d="M132650 107130
L133107 107130
" />
<path d="M133250 107072
L133250 106672
" />
<path d="M133250 106730
L133278 106701
L133335 106672
L133421 106672
L133478 106701
L133507 106758
L133507 107072
" />
<path d="M133507 106758
L133535 106701
L133592 106672
L133678 106672
L133735 106701
L133764 106758
L133764 107072
" />
<path d="M134050 107072
L134050 106672
" />
<path d="M134050 106472
L134021 106501
L134050 106530
L134078 106501
L134050 106472
L134050 106530
" />
<path d="M134335 106672
L134335 107072
" />
<path d="M134335 106730
L134364 106701
L134421 106672
L134507 106672
L134564 106701
L134592 106758
L134592 107072
" />
<path d="M134878 107072
L134878 106672
" />
<path d="M134878 106472
L134850 106501
L134878 106530
L134907 106501
L134878 106472
L134878 106530
" />
<path d="M135164 107015
L135192 107044
L135164 107072
L135135 107044
L135164 107015
L135164 107072
" />
<path d="M135450 107072
L135450 106472
" />
<path d="M135507 106844
L135678 107072
" />
<path d="M135678 106672
L135450 106901
" />
<path d="M135935 107072
L135935 106672
" />
<path d="M135935 106472
L135907 106501
L135935 106530
L135964 106501
L135935 106472
L135935 106530
" />
<path d="M136478 107044
L136421 107072
L136307 107072
L136250 107044
L136221 107015
L136192 106958
L136192 106787
L136221 106730
L136250 106701
L136307 106672
L136421 106672
L136478 106701
" />
<path d="M136992 107072
L136992 106758
L136964 106701
L136907 106672
L136792 106672
L136735 106701
" />
<path d="M136992 107044
L136935 107072
L136792 107072
L136735 107044
L136707 106987
L136707 106930
L136735 106872
L136792 106844
L136935 106844
L136992 106815
" />
<path d="M137535 107072
L137535 106472
" />
<path d="M137535 107044
L137478 107072
L137364 107072
L137307 107044
L137278 107015
L137250 106958
L137250 106787
L137278 106730
L137307 106701
L137364 106672
L137478 106672
L137535 106701
" />
<path d="M137678 107130
L138135 107130
" />
<path d="M138278 106672
L138278 107272
" />
<path d="M138278 106701
L138335 106672
L138450 106672
L138507 106701
L138535 106730
L138564 106787
L138564 106958
L138535 107015
L138507 107044
L138450 107072
L138335 107072
L138278 107044
" />
<path d="M139078 107044
L139021 107072
L138907 107072
L138850 107044
L138821 107015
L138792 106958
L138792 106787
L138821 106730
L138850 106701
L138907 106672
L139021 106672
L139078 106701
" />
<path d="M139335 107072
L139335 106472
" />
<path d="M139335 106701
L139392 106672
L139507 106672
L139564 106701
L139592 106730
L139621 106787
L139621 106958
L139592 107015
L139564 107044
L139507 107072
L139392 107072
L139335 107044
" />
<path d="M119364 108244
L119450 108272
L119592 108272
L119650 108244
L119678 108215
L119707 108158
L119707 108101
L119678 108044
L119650 108015
L119592 107987
L119478 107958
L119421 107930
L119392 107901
L119364 107844
L119364 107787
L119392 107730
L119421 107701
L119478 107672
L119621 107672
L119707 107701
" />
<path d="M119964 108272
L119964 107672
" />
<path d="M120221 108272
L120221 107958
L120192 107901
L120135 107872
L120050 107872
L119992 107901
L119964 107930
" />
<path d="M120735 108244
L120678 108272
L120564 108272
L120507 108244
L120478 108187
L120478 107958
L120507 107901
L120564 107872
L120678 107872
L120735 107901
L120764 107958
L120764 108015
L120478 108072
" />
<path d="M121250 108244
L121192 108272
L121078 108272
L121021 108244
L120992 108187
L120992 107958
L121021 107901
L121078 107872
L121192 107872
L121250 107901
L121278 107958
L121278 108015
L120992 108072
" />
<path d="M121450 107872
L121678 107872
" />
<path d="M121535 107672
L121535 108187
L121564 108244
L121621 108272
L121678 108272
" />
<path d="M121878 108215
L121907 108244
L121878 108272
L121850 108244
L121878 108215
L121878 108272
" />
<path d="M121878 107901
L121907 107930
L121878 107958
L121850 107930
L121878 107901
L121878 107958
" />
<path d="M118650 106230
L118650 112230
" />
<path d="M118650 106230
L160650 106230
" />
<path d="M118650 106230
L160650 106230
" />
<path d="M118650 108630
L160650 108630
" />
<path d="M151850 109830
L151850 112230
" />
<path d="M118650 111030
L160650 111030
" />
<path d="M118650 109830
L160650 109830
" />
<path d="M125250 109830
L125250 111030
" />
</g>
<g style="fill:#FFFF00; fill-opacity:0.0; 
stroke:#FFFF00; stroke-width:39.3701; stroke-opacity:1; 
stroke-linecap:round; stroke-linejoin:round;">
<path d="M31500 17750
L45250 17750
" />
<path d="M31000 18250
L31500 17750
" />
<path d="M31000 32750
L31000 18250
" />
<path d="M45250 17750
L45750 18250
" />
<path d="M31250 33000
L31000 32750
" />
<path d="M32250 34000
L31250 33000
" />
<path d="M32500 34000
L32250 34000
" />
<path d="M43500 34000
L32500 34000
" />
<path d="M45000 32500
L43500 34000
" />
<path d="M45000 23000
L45000 32500
" />
<path d="M45750 22250
L45000 23000
" />
<path d="M45750 18250
L45750 22250
" />
</g>
<g style="fill:#A000A0; fill-opacity:0.0; 
stroke:#A000A0; stroke-width:118.11; stroke-opacity:1; 
stroke-linecap:round; stroke-linejoin:round;">
<path d="M42845 24092
L43323 24092
L43379 24064
L43407 24035
L43435 23979
L43435 23895
L43407 23839
" />
<path d="M43210 24092
L43239 24035
L43239 23923
L43210 23867
L43182 23839
L43126 23811
L42957 23811
L42901 23839
L42873 23867
L42845 23923
L42845 24035
L42873 24092
" />
<path d="M42845 24373
L43239 24373
" />
<path d="M42901 24373
L42873 24401
L42845 24457
L42845 24542
L42873 24598
L42929 24626
L43239 24626
" />
<path d="M43239 25160
L42648 25160
" />
<path d="M43210 25160
L43239 25104
L43239 24992
L43210 24935
L43182 24907
L43126 24879
L42957 24879
L42901 24907
L42873 24935
L42845 24992
L42845 25104
L42873 25160
" />
<path d="M42845 25328
L43239 25468
L42845 25609
" />
<path d="M43239 26143
L43239 25806
" />
<path d="M43239 25974
L42648 25974
L42732 25918
L42789 25862
L42817 25806
" />
<path d="M42845 27078
L43239 27218
L42845 27359
" />
<path d="M42704 27556
L42676 27584
L42648 27640
L42648 27781
L42676 27837
L42704 27865
L42760 27893
L42817 27893
L42901 27865
L43239 27528
L43239 27893
" />
<path d="M42845 29078
L43239 29218
L42845 29359
" />
<path d="M42648 29528
L42648 29893
L42873 29696
L42873 29781
L42901 29837
L42929 29865
L42985 29893
L43126 29893
L43182 29865
L43210 29837
L43239 29781
L43239 29612
L43210 29556
L43182 29528
" />
<path d="M42845 31078
L43239 31218
L42845 31359
" />
<path d="M42845 31837
L43239 31837
" />
<path d="M42620 31696
L43042 31556
L43042 31921
" />
</g>
<g style="fill:#00A0A0; fill-opacity:0.0; 
stroke:#00A0A0; stroke-width:118.11; stroke-opacity:1; 
stroke-linecap:round; stroke-linejoin:round;">
<path d="M42828 33345
L42968 33739
L43109 33345
" />
<path d="M43587 33345
L43587 33739
" />
<path d="M43446 33120
L43306 33542
L43671 33542
" />
<path d="M43662 22739
L43325 22739
" />
<path d="M43493 22739
L43493 22148
L43437 22232
L43381 22289
L43325 22317
" />
<path d="M43887 22204
L43915 22176
L43971 22148
L44112 22148
L44168 22176
L44196 22204
L44224 22260
L44224 22317
L44196 22401
L43859 22739
L44224 22739
" />
<path d="M44421 22345
L44562 22739
L44703 22345
" />
<path d="M39951 23845
L39951 24239
" />
<path d="M39811 23620
L39670 24042
L40035 24042
" />
<path d="M40260 24182
L40289 24210
L40260 24239
L40232 24210
L40260 24182
L40260 24239
" />
<path d="M40485 23648
L40879 23648
L40626 24239
" />
<path d="M41104 24239
L41104 23648
" />
<path d="M41160 24014
L41329 24239
" />
<path d="M41329 23845
L41104 24070
" />
<path d="M41589 22710
L41645 22739
L41757 22739
L41814 22710
L41842 22654
L41842 22626
L41814 22570
L41757 22542
L41673 22542
L41617 22514
L41589 22457
L41589 22429
L41617 22373
L41673 22345
L41757 22345
L41814 22373
" />
<path d="M42348 22739
L42348 22148
" />
<path d="M42348 22710
L42292 22739
L42179 22739
L42123 22710
L42095 22682
L42067 22626
L42067 22457
L42095 22401
L42123 22373
L42179 22345
L42292 22345
L42348 22373
" />
<path d="M42882 22739
L42882 22429
L42854 22373
L42798 22345
L42685 22345
L42629 22373
" />
<path d="M42882 22710
L42826 22739
L42685 22739
L42629 22710
L42601 22654
L42601 22598
L42629 22542
L42685 22514
L42826 22514
L42882 22485
" />
<path d="M38465 22960
L38521 22989
L38634 22989
L38690 22960
L38718 22904
L38718 22876
L38690 22820
L38634 22792
L38550 22792
L38493 22764
L38465 22707
L38465 22679
L38493 22623
L38550 22595
L38634 22595
L38690 22623
" />
<path d="M39224 22960
L39168 22989
L39056 22989
L39000 22960
L38971 22932
L38943 22876
L38943 22707
L38971 22651
L39000 22623
L39056 22595
L39168 22595
L39224 22623
" />
<path d="M39562 22989
L39506 22960
L39478 22904
L39478 22398
" />
<path d="M33904 31078
L33510 31218
L33904 31359
" />
<path d="M33848 31668
L33876 31612
L33904 31584
L33960 31556
L33989 31556
L34045 31584
L34073 31612
L34101 31668
L34101 31781
L34073 31837
L34045 31865
L33989 31893
L33960 31893
L33904 31865
L33876 31837
L33848 31781
L33848 31668
L33820 31612
L33792 31584
L33735 31556
L33623 31556
L33567 31584
L33539 31612
L33510 31668
L33510 31781
L33539 31837
L33567 31865
L33623 31893
L33735 31893
L33792 31865
L33820 31837
L33848 31781
" />
<path d="M33904 29078
L33510 29218
L33904 29359
" />
<path d="M34101 29528
L34101 29921
L33510 29668
" />
<path d="M33904 27078
L33510 27218
L33904 27359
" />
<path d="M34101 27837
L34101 27724
L34073 27668
L34045 27640
L33960 27584
L33848 27556
L33623 27556
L33567 27584
L33539 27612
L33510 27668
L33510 27781
L33539 27837
L33567 27865
L33623 27893
L33764 27893
L33820 27865
L33848 27837
L33876 27781
L33876 27668
L33848 27612
L33820 27584
L33764 27556
" />
<path d="M33904 25078
L33510 25218
L33904 25359
" />
<path d="M34101 25865
L34101 25584
L33820 25556
L33848 25584
L33876 25640
L33876 25781
L33848 25837
L33820 25865
L33764 25893
L33623 25893
L33567 25865
L33539 25837
L33510 25781
L33510 25640
L33539 25584
L33567 25556
" />
<path d="M33550 24739
L33550 24345
" />
<path d="M33550 24457
L33578 24401
L33606 24373
L33662 24345
L33718 24345
" />
<path d="M33887 24710
L33943 24739
L34056 24739
L34112 24710
L34140 24654
L34140 24626
L34112 24570
L34056 24542
L33971 24542
L33915 24514
L33887 24457
L33887 24429
L33915 24373
L33971 24345
L34056 24345
L34112 24373
" />
<path d="M34309 24345
L34534 24345
" />
<path d="M34393 24148
L34393 24654
L34421 24710
L34478 24739
L34534 24739
" />
<path d="M34101 23415
L34101 23134
L33820 23106
L33848 23134
L33876 23190
L33876 23331
L33848 23387
L33820 23415
L33764 23443
L33623 23443
L33567 23415
L33539 23387
L33510 23331
L33510 23190
L33539 23134
L33567 23106
" />
<path d="M33904 23640
L33510 23781
L33904 23921
" />
<path d="M33845 22739
L33845 22429
L33817 22373
L33760 22345
L33648 22345
L33592 22373
" />
<path d="M33845 22710
L33789 22739
L33648 22739
L33592 22710
L33564 22654
L33564 22598
L33592 22542
L33648 22514
L33789 22514
L33845 22485
" />
<path d="M34098 22204
L34126 22176
L34182 22148
L34323 22148
L34379 22176
L34407 22204
L34435 22260
L34435 22317
L34407 22401
L34070 22739
L34435 22739
" />
<path d="M38221 22148
L38278 22148
L38334 22176
L38362 22204
L38390 22260
L38418 22373
L38418 22514
L38390 22626
L38362 22682
L38334 22710
L38278 22739
L38221 22739
L38165 22710
L38137 22682
L38109 22626
L38081 22514
L38081 22373
L38109 22260
L38137 22204
L38165 22176
L38221 22148
" />
<path d="M34918 22739
L34581 22739
" />
<path d="M34750 22739
L34750 22148
L34693 22232
L34637 22289
L34581 22317
" />
</g>
<g style="fill:#00A0A0; fill-opacity:0.0; 
stroke:#00A0A0; stroke-width:59.0551; stroke-opacity:1; 
stroke-linecap:round; stroke-linejoin:round;">
<path d="M40200 24265
L40200 24584
L40218 24621
L40237 24640
L40275 24659
L40350 24659
L40387 24640
L40406 24621
L40425 24584
L40425 24265
" />
<path d="M40818 24659
L40593 24659
" />
<path d="M40706 24659
L40706 24265
L40668 24321
L40631 24359
L40593 24378
" />
<path d="M39272 33265
L39272 33584
L39290 33621
L39309 33640
L39347 33659
L39422 33659
L39459 33640
L39478 33621
L39497 33584
L39497 33265
" />
<path d="M39871 33659
L39684 33659
L39684 33265
" />
<path d="M40003 33659
L40003 33265
L40228 33659
L40228 33265
" />
<path d="M40396 33303
L40415 33284
L40453 33265
L40546 33265
L40584 33284
L40603 33303
L40621 33340
L40621 33378
L40603 33434
L40378 33659
L40621 33659
" />
<path d="M40865 33265
L40903 33265
L40940 33284
L40959 33303
L40978 33340
L40996 33415
L40996 33509
L40978 33584
L40959 33621
L40940 33640
L40903 33659
L40865 33659
L40828 33640
L40809 33621
L40790 33584
L40771 33509
L40771 33415
L40790 33340
L40809 33303
L40828 33284
L40865 33265
" />
<path d="M41240 33265
L41278 33265
L41315 33284
L41334 33303
L41353 33340
L41371 33415
L41371 33509
L41353 33584
L41334 33621
L41315 33640
L41278 33659
L41240 33659
L41203 33640
L41184 33621
L41165 33584
L41146 33509
L41146 33415
L41165 33340
L41184 33303
L41203 33284
L41240 33265
" />
<path d="M41502 33265
L41746 33265
L41615 33415
L41671 33415
L41709 33434
L41727 33453
L41746 33490
L41746 33584
L41727 33621
L41709 33640
L41671 33659
L41559 33659
L41521 33640
L41502 33621
" />
<path d="M35700 33265
L35700 33584
L35718 33621
L35737 33640
L35775 33659
L35850 33659
L35887 33640
L35906 33621
L35925 33584
L35925 33265
" />
<path d="M36074 33265
L36318 33265
L36187 33415
L36243 33415
L36281 33434
L36299 33453
L36318 33490
L36318 33584
L36299 33621
L36281 33640
L36243 33659
L36131 33659
L36093 33640
L36074 33621
" />
<path d="M34772 24265
L34772 24584
L34790 24621
L34809 24640
L34847 24659
L34922 24659
L34959 24640
L34978 24621
L34997 24584
L34997 24265
" />
<path d="M35371 24659
L35184 24659
L35184 24265
" />
<path d="M35503 24659
L35503 24265
L35728 24659
L35728 24265
" />
<path d="M35896 24303
L35915 24284
L35953 24265
L36046 24265
L36084 24284
L36103 24303
L36121 24340
L36121 24378
L36103 24434
L35878 24659
L36121 24659
" />
<path d="M36365 24265
L36403 24265
L36440 24284
L36459 24303
L36478 24340
L36496 24415
L36496 24509
L36478 24584
L36459 24621
L36440 24640
L36403 24659
L36365 24659
L36328 24640
L36309 24621
L36290 24584
L36271 24509
L36271 24415
L36290 24340
L36309 24303
L36328 24284
L36365 24265
" />
<path d="M36740 24265
L36778 24265
L36815 24284
L36834 24303
L36853 24340
L36871 24415
L36871 24509
L36853 24584
L36834 24621
L36815 24640
L36778 24659
L36740 24659
L36703 24640
L36684 24621
L36665 24584
L36646 24509
L36646 24415
L36665 24340
L36684 24303
L36703 24284
L36740 24265
" />
<path d="M37002 24265
L37246 24265
L37115 24415
L37171 24415
L37209 24434
L37227 24453
L37246 24490
L37246 24584
L37227 24621
L37209 24640
L37171 24659
L37059 24659
L37021 24640
L37002 24621
" />
<path d="M40559 25034
L40428 24846
" />
<path d="M40334 25034
L40334 24640
L40484 24640
L40522 24659
L40540 24678
L40559 24715
L40559 24771
L40540 24809
L40522 24828
L40484 24846
L40334 24846
" />
<path d="M40934 25034
L40709 25034
" />
<path d="M40822 25034
L40822 24640
L40784 24696
L40747 24734
L40709 24753
" />
<path d="M40259 23771
L40259 24034
" />
<path d="M40165 23621
L40072 23903
L40315 23903
" />
<path d="M40465 23996
L40484 24015
L40465 24034
L40447 24015
L40465 23996
L40465 24034
" />
<path d="M40615 23640
L40878 23640
L40709 24034
" />
<path d="M41028 24034
L41028 23640
" />
<path d="M41065 23884
L41178 24034
" />
<path d="M41178 23771
L41028 23921
" />
<path d="M40559 24284
L40428 24096
" />
<path d="M40334 24284
L40334 23890
L40484 23890
L40522 23909
L40540 23928
L40559 23965
L40559 24021
L40540 24059
L40522 24078
L40484 24096
L40334 24096
" />
<path d="M40709 23928
L40728 23909
L40765 23890
L40859 23890
L40897 23909
L40915 23928
L40934 23965
L40934 24003
L40915 24059
L40690 24284
L40934 24284
" />
<path d="M40259 23021
L40259 23284
" />
<path d="M40165 22871
L40072 23153
L40315 23153
" />
<path d="M40465 23246
L40484 23265
L40465 23284
L40447 23265
L40465 23246
L40465 23284
" />
<path d="M40615 22890
L40878 22890
L40709 23284
" />
<path d="M41028 23284
L41028 22890
" />
<path d="M41065 23134
L41178 23284
" />
<path d="M41178 23021
L41028 23171
" />
<path d="M36368 23265
L36368 23546
L36350 23603
L36312 23640
L36256 23659
L36218 23659
" />
<path d="M36537 23303
L36556 23284
L36593 23265
L36687 23265
L36724 23284
L36743 23303
L36762 23340
L36762 23378
L36743 23434
L36518 23659
L36762 23659
" />
<path d="M35215 25265
L35215 25546
L35197 25603
L35159 25640
L35103 25659
L35065 25659
" />
<path d="M35403 25265
L35403 25584
L35422 25621
L35440 25640
L35478 25659
L35553 25659
L35590 25640
L35609 25621
L35628 25584
L35628 25265
" />
<path d="M35815 25659
L35815 25265
L35946 25546
L36078 25265
L36078 25659
" />
<path d="M36265 25659
L36265 25265
L36415 25265
L36453 25284
L36471 25303
L36490 25340
L36490 25396
L36471 25434
L36453 25453
L36415 25471
L36265 25471
" />
<path d="M36659 25453
L36790 25453
" />
<path d="M36846 25659
L36659 25659
L36659 25265
L36846 25265
" />
<path d="M37240 25659
L37109 25471
" />
<path d="M37015 25659
L37015 25265
L37165 25265
L37203 25284
L37221 25303
L37240 25340
L37240 25396
L37221 25434
L37203 25453
L37165 25471
L37015 25471
" />
<path d="M37315 25696
L37615 25696
" />
<path d="M37671 25265
L37915 25265
L37784 25415
L37840 25415
L37877 25434
L37896 25453
L37915 25490
L37915 25584
L37896 25621
L37877 25640
L37840 25659
L37727 25659
L37690 25640
L37671 25621
" />
<path d="M36368 22265
L36368 22546
L36350 22603
L36312 22640
L36256 22659
L36218 22659
" />
<path d="M36518 22265
L36762 22265
L36631 22415
L36687 22415
L36724 22434
L36743 22453
L36762 22490
L36762 22584
L36743 22621
L36724 22640
L36687 22659
L36574 22659
L36537 22640
L36518 22621
" />
<path d="M35215 24265
L35215 24546
L35197 24603
L35159 24640
L35103 24659
L35065 24659
" />
<path d="M35403 24265
L35403 24584
L35422 24621
L35440 24640
L35478 24659
L35553 24659
L35590 24640
L35609 24621
L35628 24584
L35628 24265
" />
<path d="M35815 24659
L35815 24265
L35946 24546
L36078 24265
L36078 24659
" />
<path d="M36265 24659
L36265 24265
L36415 24265
L36453 24284
L36471 24303
L36490 24340
L36490 24396
L36471 24434
L36453 24453
L36415 24471
L36265 24471
" />
<path d="M36659 24453
L36790 24453
" />
<path d="M36846 24659
L36659 24659
L36659 24265
L36846 24265
" />
<path d="M37240 24659
L37109 24471
" />
<path d="M37015 24659
L37015 24265
L37165 24265
L37203 24284
L37221 24303
L37240 24340
L37240 24396
L37221 24434
L37203 24453
L37165 24471
L37015 24471
" />
<path d="M37315 24696
L37615 24696
" />
<path d="M37671 24265
L37915 24265
L37784 24415
L37840 24415
L37877 24434
L37896 24453
L37915 24490
L37915 24584
L37896 24621
L37877 24640
L37840 24659
L37727 24659
L37690 24640
L37671 24621
" />
<path d="M36368 21265
L36368 21546
L36350 21603
L36312 21640
L36256 21659
L36218 21659
" />
<path d="M36724 21396
L36724 21659
" />
<path d="M36631 21246
L36537 21528
L36781 21528
" />
<path d="M35215 23265
L35215 23546
L35197 23603
L35159 23640
L35103 23659
L35065 23659
" />
<path d="M35403 23265
L35403 23584
L35422 23621
L35440 23640
L35478 23659
L35553 23659
L35590 23640
L35609 23621
L35628 23584
L35628 23265
" />
<path d="M35815 23659
L35815 23265
L35946 23546
L36078 23265
L36078 23659
" />
<path d="M36265 23659
L36265 23265
L36415 23265
L36453 23284
L36471 23303
L36490 23340
L36490 23396
L36471 23434
L36453 23453
L36415 23471
L36265 23471
" />
<path d="M36659 23453
L36790 23453
" />
<path d="M36846 23659
L36659 23659
L36659 23265
L36846 23265
" />
<path d="M37240 23659
L37109 23471
" />
<path d="M37015 23659
L37015 23265
L37165 23265
L37203 23284
L37221 23303
L37240 23340
L37240 23396
L37221 23434
L37203 23453
L37165 23471
L37015 23471
" />
<path d="M37315 23696
L37615 23696
" />
<path d="M37671 23265
L37915 23265
L37784 23415
L37840 23415
L37877 23434
L37896 23453
L37915 23490
L37915 23584
L37896 23621
L37877 23640
L37840 23659
L37727 23659
L37690 23640
L37671 23621
" />
<path d="M40368 23515
L40368 23796
L40350 23853
L40312 23890
L40256 23909
L40218 23909
" />
<path d="M40762 23909
L40537 23909
" />
<path d="M40649 23909
L40649 23515
L40612 23571
L40574 23609
L40537 23628
" />
<path d="M39215 21515
L39215 21796
L39197 21853
L39159 21890
L39103 21909
L39065 21909
" />
<path d="M39403 21515
L39403 21834
L39422 21871
L39440 21890
L39478 21909
L39553 21909
L39590 21890
L39609 21871
L39628 21834
L39628 21515
" />
<path d="M39815 21909
L39815 21515
L39946 21796
L40078 21515
L40078 21909
" />
<path d="M40265 21909
L40265 21515
L40415 21515
L40453 21534
L40471 21553
L40490 21590
L40490 21646
L40471 21684
L40453 21703
L40415 21721
L40265 21721
" />
<path d="M40659 21703
L40790 21703
" />
<path d="M40846 21909
L40659 21909
L40659 21515
L40846 21515
" />
<path d="M41240 21909
L41109 21721
" />
<path d="M41015 21909
L41015 21515
L41165 21515
L41203 21534
L41221 21553
L41240 21590
L41240 21646
L41221 21684
L41203 21703
L41165 21721
L41015 21721
" />
<path d="M41315 21946
L41615 21946
" />
<path d="M41690 21553
L41709 21534
L41746 21515
L41840 21515
L41877 21534
L41896 21553
L41915 21590
L41915 21628
L41896 21684
L41671 21909
L41915 21909
" />
<path d="M45159 28790
L44765 28790
L44765 28640
L44784 28603
L44803 28584
L44840 28565
L44896 28565
L44934 28584
L44953 28603
L44971 28640
L44971 28790
" />
<path d="M45159 28190
L45159 28415
" />
<path d="M45159 28303
L44765 28303
L44821 28340
L44859 28378
L44878 28415
" />
<path d="M43121 29840
L43140 29859
L43159 29915
L43159 29952
L43140 30009
L43103 30046
L43065 30065
L42990 30084
L42934 30084
L42859 30065
L42821 30046
L42784 30009
L42765 29952
L42765 29915
L42784 29859
L42803 29840
" />
<path d="M42765 29596
L42765 29521
L42784 29484
L42821 29446
L42896 29428
L43028 29428
L43103 29446
L43140 29484
L43159 29521
L43159 29596
L43140 29634
L43103 29671
L43028 29690
L42896 29690
L42821 29671
L42784 29634
L42765 29596
" />
<path d="M43159 29259
L42765 29259
L43159 29034
L42765 29034
" />
<path d="M43159 28846
L42765 28846
L43159 28621
L42765 28621
" />
<path d="M43196 28528
L43196 28228
" />
<path d="M43159 27928
L43159 28153
" />
<path d="M43159 28040
L42765 28040
L42821 28078
L42859 28115
L42878 28153
" />
<path d="M42765 27684
L42765 27646
L42784 27609
L42803 27590
L42840 27571
L42915 27553
L43009 27553
L43084 27571
L43121 27590
L43140 27609
L43159 27646
L43159 27684
L43140 27721
L43121 27740
L43084 27759
L43009 27778
L42915 27778
L42840 27759
L42803 27740
L42784 27721
L42765 27684
" />
<path d="M43196 27478
L43196 27178
" />
<path d="M42765 27140
L43159 27009
L42765 26878
" />
<path d="M33409 28790
L33015 28790
L33015 28640
L33034 28603
L33053 28584
L33090 28565
L33146 28565
L33184 28584
L33203 28603
L33221 28640
L33221 28790
" />
<path d="M33053 28415
L33034 28396
L33015 28359
L33015 28265
L33034 28228
L33053 28209
L33090 28190
L33128 28190
L33184 28209
L33409 28434
L33409 28190
" />
<path d="M31371 29840
L31390 29859
L31409 29915
L31409 29952
L31390 30009
L31353 30046
L31315 30065
L31240 30084
L31184 30084
L31109 30065
L31071 30046
L31034 30009
L31015 29952
L31015 29915
L31034 29859
L31053 29840
" />
<path d="M31015 29596
L31015 29521
L31034 29484
L31071 29446
L31146 29428
L31278 29428
L31353 29446
L31390 29484
L31409 29521
L31409 29596
L31390 29634
L31353 29671
L31278 29690
L31146 29690
L31071 29671
L31034 29634
L31015 29596
" />
<path d="M31409 29259
L31015 29259
L31409 29034
L31015 29034
" />
<path d="M31409 28846
L31015 28846
L31409 28621
L31015 28621
" />
<path d="M31446 28528
L31446 28228
" />
<path d="M31409 27928
L31409 28153
" />
<path d="M31409 28040
L31015 28040
L31071 28078
L31109 28115
L31128 28153
" />
<path d="M31015 27684
L31015 27646
L31034 27609
L31053 27590
L31090 27571
L31165 27553
L31259 27553
L31334 27571
L31371 27590
L31390 27609
L31409 27646
L31409 27684
L31390 27721
L31371 27740
L31334 27759
L31259 27778
L31165 27778
L31090 27759
L31053 27740
L31034 27721
L31015 27684
" />
<path d="M31446 27478
L31446 27178
" />
<path d="M31015 27140
L31409 27009
L31015 26878
" />
<path d="M30515 20299
L30834 20299
L30871 20281
L30890 20262
L30909 20224
L30909 20149
L30890 20112
L30871 20093
L30834 20074
L30515 20074
" />
<path d="M30553 19906
L30534 19887
L30515 19850
L30515 19756
L30534 19718
L30553 19700
L30590 19681
L30628 19681
L30684 19700
L30909 19925
L30909 19681
" />
<path d="M45909 21962
L45515 21962
L45796 21831
L45515 21699
L45909 21699
" />
<path d="M45871 21287
L45890 21306
L45909 21362
L45909 21399
L45890 21456
L45853 21493
L45815 21512
L45740 21531
L45684 21531
L45609 21512
L45571 21493
L45534 21456
L45515 21399
L45515 21362
L45534 21306
L45553 21287
" />
<path d="M45909 21118
L45515 21118
L45515 20968
L45534 20931
L45553 20912
L45590 20893
L45646 20893
L45684 20912
L45703 20931
L45721 20968
L45721 21118
" />
<path d="M45553 20743
L45534 20724
L45515 20687
L45515 20593
L45534 20556
L45553 20537
L45590 20518
L45628 20518
L45684 20537
L45909 20762
L45909 20518
" />
<path d="M45515 20387
L45515 20143
L45665 20275
L45665 20218
L45684 20181
L45703 20162
L45740 20143
L45834 20143
L45871 20162
L45890 20181
L45909 20218
L45909 20331
L45890 20368
L45871 20387
" />
<path d="M45515 19900
L45515 19862
L45534 19825
L45553 19806
L45590 19787
L45665 19768
L45759 19768
L45834 19787
L45871 19806
L45890 19825
L45909 19862
L45909 19900
L45890 19937
L45871 19956
L45834 19975
L45759 19993
L45665 19993
L45590 19975
L45553 19956
L45534 19937
L45515 19900
" />
<path d="M45909 19393
L45909 19618
" />
<path d="M45909 19506
L45515 19506
L45571 19543
L45609 19581
L45628 19618
" />
<path d="M45515 19262
L45515 19000
L45909 19168
" />
<path d="M40500 33000
L39000 33000
" />
<path d="M40000 25000
L40000 25500
" />
<path d="M40000 25500
L41000 25500
" />
<path d="M41000 25500
L41000 25000
" />
<path d="M39000 25000
L40500 25000
" />
<path d="M39000 25000
L39000 33000
" />
<path d="M40500 33000
L42000 33000
" />
<path d="M42000 33000
L42000 25000
" />
<path d="M42000 25000
L40500 25000
" />
<path d="M36000 25000
L37500 25000
" />
<path d="M36500 33000
L36500 32500
" />
<path d="M36500 32500
L35500 32500
" />
<path d="M35500 32500
L35500 33000
" />
<path d="M37500 33000
L36000 33000
" />
<path d="M37500 33000
L37500 25000
" />
<path d="M36000 25000
L34500 25000
" />
<path d="M34500 25000
L34500 33000
" />
<path d="M34500 33000
L36000 33000
" />
<path d="M42779 22889
L42779 24720
" />
<path d="M45220 22889
L45220 24110
" />
<path d="M42779 33110
L42779 23956
" />
<path d="M45220 33110
L45220 23956
" />
<path d="M45220 33110
L42779 33110
" />
<path d="M45220 22889
L42779 22889
" />
<path d="M31029 22889
L31029 24720
" />
<path d="M33470 22889
L33470 24110
" />
<path d="M31029 33110
L31029 23956
" />
<path d="M33470 33110
L33470 23956
" />
<path d="M33470 33110
L31029 33110
" />
<path d="M33470 22889
L31029 22889
" />
<path d="M31250 20500
L31750 20500
" />
<path d="M31750 20500
L31750 19500
" />
<path d="M31750 19500
L31250 19500
" />
<path d="M31250 20000
L31250 21500
" />
<path d="M45250 20000
L45250 21500
" />
<path d="M31250 21500
L45250 21500
" />
<path d="M45250 20000
L45250 18500
" />
<path d="M45250 18500
L31250 18500
" />
<path d="M31250 18500
L31250 20000
" />
</g>
<g style="fill:#808000; fill-opacity:0.0; 
stroke:#808000; stroke-width:39.3701; stroke-opacity:1; 
stroke-linecap:round; stroke-linejoin:round;">
</g>
<g style="fill:#808000; fill-opacity:1.0; 
stroke:#808000; stroke-width:39.3701; stroke-opacity:1; 
stroke-linecap:round; stroke-linejoin:round;">
<circle cx="39000" cy="25500" r="275.591" /> 
<circle cx="39000" cy="26500" r="275.591" /> 
<circle cx="39000" cy="27500" r="275.591" /> 
<circle cx="39000" cy="28500" r="275.591" /> 
<circle cx="39000" cy="29500" r="275.591" /> 
<circle cx="39000" cy="30500" r="275.591" /> 
<circle cx="39000" cy="31500" r="275.591" /> 
<circle cx="39000" cy="32500" r="275.591" /> 
<circle cx="42000" cy="32500" r="275.591" /> 
<circle cx="42000" cy="31500" r="275.591" /> 
<circle cx="42000" cy="30500" r="275.591" /> 
<circle cx="42000" cy="29500" r="275.591" /> 
<circle cx="42000" cy="28500" r="275.591" /> 
<circle cx="42000" cy="27500" r="275.591" /> 
<circle cx="42000" cy="26500" r="275.591" /> 
<circle cx="42000" cy="25500" r="275.591" /> 
<circle cx="37500" cy="32500" r="275.591" /> 
<circle cx="37500" cy="31500" r="275.591" /> 
<circle cx="37500" cy="30500" r="275.591" /> 
<circle cx="37500" cy="29500" r="275.591" /> 
<circle cx="37500" cy="28500" r="275.591" /> 
<circle cx="37500" cy="27500" r="275.591" /> 
<circle cx="37500" cy="26500" r="275.591" /> 
<circle cx="37500" cy="25500" r="275.591" /> 
<circle cx="34500" cy="25500" r="275.591" /> 
<circle cx="34500" cy="26500" r="275.591" /> 
<circle cx="34500" cy="27500" r="275.591" /> 
<circle cx="34500" cy="28500" r="275.591" /> 
<circle cx="34500" cy="29500" r="275.591" /> 
<circle cx="34500" cy="30500" r="275.591" /> 
<circle cx="34500" cy="31500" r="275.591" /> 
<circle cx="34500" cy="32500" r="275.591" /> 
<circle cx="42125.2" cy="24375" r="275.591" /> 
<circle cx="39125.2" cy="24375" r="275.591" /> 
<circle cx="42125.2" cy="23625" r="275.591" /> 
<circle cx="39125.2" cy="23625" r="275.591" /> 
<circle cx="36500" cy="24500" r="275.591" /> 
<circle cx="37500" cy="24500" r="275.591" /> 
<circle cx="35500" cy="24500" r="275.591" /> 
<circle cx="36500" cy="23500" r="275.591" /> 
<circle cx="37500" cy="23500" r="275.591" /> 
<circle cx="35500" cy="23500" r="275.591" /> 
<circle cx="36500" cy="22500" r="275.591" /> 
<circle cx="37500" cy="22500" r="275.591" /> 
<circle cx="35500" cy="22500" r="275.591" /> 
<circle cx="41000" cy="22750" r="275.591" /> 
<circle cx="40000" cy="22750" r="275.591" /> 
<circle cx="44000" cy="23500" r="393.701" /> 
<circle cx="44000" cy="24500" r="393.701" /> 
<circle cx="44000" cy="25500" r="393.701" /> 
<circle cx="44000" cy="26500" r="393.701" /> 
<circle cx="44000" cy="27500" r="393.701" /> 
<circle cx="44000" cy="28500" r="393.701" /> 
<circle cx="44000" cy="29500" r="393.701" /> 
<circle cx="44000" cy="30500" r="393.701" /> 
<circle cx="44000" cy="31500" r="393.701" /> 
<circle cx="44000" cy="32500" r="393.701" /> 
<circle cx="32250" cy="23500" r="393.701" /> 
<circle cx="32250" cy="24500" r="393.701" /> 
<circle cx="32250" cy="25500" r="393.701" /> 
<circle cx="32250" cy="26500" r="393.701" /> 
<circle cx="32250" cy="27500" r="393.701" /> 
<circle cx="32250" cy="28500" r="393.701" /> 
<circle cx="32250" cy="29500" r="393.701" /> 
<circle cx="32250" cy="30500" r="393.701" /> 
<circle cx="32250" cy="31500" r="393.701" /> 
<circle cx="32250" cy="32500" r="393.701" /> 
<circle cx="31750" cy="21500" r="275.591" /> 
<circle cx="32750" cy="21500" r="275.591" /> 
<circle cx="33750" cy="21500" r="275.591" /> 
<circle cx="34750" cy="21500" r="275.591" /> 
<circle cx="35750" cy="21500" r="275.591" /> 
<circle cx="36750" cy="21500" r="275.591" /> 
<circle cx="37750" cy="21500" r="275.591" /> 
<circle cx="38750" cy="21500" r="275.591" /> 
<circle cx="39750" cy="21500" r="275.591" /> 
<circle cx="40750" cy="21500" r="275.591" /> 
<circle cx="41750" cy="21500" r="275.591" /> 
<circle cx="42750" cy="21500" r="275.591" /> 
<circle cx="43750" cy="21500" r="275.591" /> 
<circle cx="44750" cy="21500" r="275.591" /> 
<circle cx="44750" cy="18500" r="275.591" /> 
<circle cx="43750" cy="18500" r="275.591" /> 
<circle cx="42750" cy="18500" r="275.591" /> 
<circle cx="41750" cy="18500" r="275.591" /> 
<circle cx="40750" cy="18500" r="275.591" /> 
<circle cx="39750" cy="18500" r="275.591" /> 
<circle cx="38750" cy="18500" r="275.591" /> 
<circle cx="37750" cy="18500" r="275.591" /> 
<circle cx="36750" cy="18500" r="275.591" /> 
<circle cx="35750" cy="18500" r="275.591" /> 
<circle cx="34750" cy="18500" r="275.591" /> 
<circle cx="33750" cy="18500" r="275.591" /> 
<circle cx="32750" cy="18500" r="275.591" /> 
<circle cx="31750" cy="18500" r="275.591" /> 
</g>
<g style="fill:#C0C0C0; fill-opacity:1.0; 
stroke:#C0C0C0; stroke-width:39.3701; stroke-opacity:1; 
stroke-linecap:round; stroke-linejoin:round;">
<circle cx="37897.4" cy="26915.9" r="155.315" /> 
</g>
<g style="fill:#00A000; fill-opacity:1.0; 
stroke:#00A000; stroke-width:196.85; stroke-opacity:1; 
stroke-linecap:round; stroke-linejoin:round;">
<path d="M44000 32500
L42000 32500
" />
</g>
<g style="fill:#A00000; fill-opacity:1.0; 
stroke:#A00000; stroke-width:196.85; stroke-opacity:1; 
stroke-linecap:round; stroke-linejoin:round;">
<path d="M44714 25820
L44035 26500
" />
<path d="M44714 24191
L44714 25820
" />
<path d="M44023 23500
L44714 24191
" />
<path d="M44000 23500
L44023 23500
" />
<path d="M44035 26500
L44000 26500
" />
<path d="M44000 28500
L44044 28500
" />
<path d="M44708 27173
L44035 26500
" />
<path d="M44708 27835
L44708 27173
" />
<path d="M44044 28500
L44708 27835
" />
<path d="M44712 29810
L44023 30500
" />
<path d="M44712 29168
L44712 29810
" />
<path d="M44044 28500
L44712 29168
" />
<path d="M44708 31185
L44023 30500
" />
<path d="M44708 31835
L44708 31185
" />
<path d="M44044 32500
L44708 31835
" />
<path d="M44000 32500
L44044 32500
" />
<path d="M44023 30500
L44000 30500
" />
</g>
<g style="fill:#00A000; fill-opacity:1.0; 
stroke:#00A000; stroke-width:196.85; stroke-opacity:1; 
stroke-linecap:round; stroke-linejoin:round;">
<path d="M32963 29179
L32284 28500
" />
<path d="M32963 29841
L32963 29179
" />
<path d="M32304 30500
L32963 29841
" />
<path d="M32250 30500
L32304 30500
" />
<path d="M32284 28500
L32250 28500
" />
<path d="M34500 25500
L32900 27099
" />
<path d="M32962 27161
L32900 27099
" />
<path d="M32962 27821
L32962 27161
" />
<path d="M32284 28500
L32962 27821
" />
<path d="M32300 26500
L32250 26500
" />
<path d="M32900 27099
L32300 26500
" />
</g>
<g style="fill:#A00000; fill-opacity:1.0; 
stroke:#A00000; stroke-width:196.85; stroke-opacity:1; 
stroke-linecap:round; stroke-linejoin:round;">
<path d="M41190 33309
L42000 32500
" />
<path d="M34459 33309
L41190 33309
" />
<path d="M32968 31818
L34459 33309
" />
<path d="M32286 32500
L32968 31818
" />
<path d="M32250 32500
L32286 32500
" />
<path d="M32278 30500
L32250 30500
" />
<path d="M32968 31190
L32278 30500
" />
<path d="M32968 31818
L32968 31190
" />
<path d="M35500 22500
L35500 23500
" />
<path d="M35500 23500
L35500 24500
" />
<path d="M42125 23625
L42125 24375
" />
</g>
<g style="fill:#00A000; fill-opacity:1.0; 
stroke:#00A000; stroke-width:196.85; stroke-opacity:1; 
stroke-linecap:round; stroke-linejoin:round;">
<path d="M32250 23500
L35500 23500
" />
</g>
<g style="fill:#A00000; fill-opacity:1.0; 
stroke:#A00000; stroke-width:196.85; stroke-opacity:1; 
stroke-linecap:round; stroke-linejoin:round;">
<path d="M42125 23039
L42125 23625
" />
<path d="M41188 22102
L42125 23039
" />
<path d="M40352 22102
L41188 22102
" />
<path d="M39750 21500
L40352 22102
" />
</g>
<g style="fill:#00A000; fill-opacity:1.0; 
stroke:#00A000; stroke-width:196.85; stroke-opacity:1; 
stroke-linecap:round; stroke-linejoin:round;">
<path d="M35500 31922
L35500 24500
" />
<path d="M37094 33516
L35500 31922
" />
<path d="M38820 33516
L37094 33516
" />
<path d="M40266 32070
L38820 33516
" />
<path d="M40266 26233
L40266 32070
" />
<path d="M42125 24375
L40266 26233
" />
</g>
<g style="fill:#00A000; fill-opacity:1.0; 
stroke:#00A000; stroke-width:100; stroke-opacity:1; 
stroke-linecap:round; stroke-linejoin:round;">
<path d="M31575 23825
L32250 24500
" />
<path d="M31575 23237
L31575 23825
" />
<path d="M32256 22556
L31575 23237
" />
<path d="M34324 22556
L32256 22556
" />
<path d="M35304 21576
L34324 22556
" />
<path d="M35304 21315
L35304 21576
" />
<path d="M37674 18945
L35304 21315
" />
<path d="M41304 18945
L37674 18945
" />
<path d="M41750 18500
L41304 18945
" />
</g>
<g style="fill:#A00000; fill-opacity:1.0; 
stroke:#A00000; stroke-width:100; stroke-opacity:1; 
stroke-linecap:round; stroke-linejoin:round;">
<path d="M38679 25179
L39000 25500
" />
<path d="M38679 22663
L38679 25179
" />
<path d="M39201 22141
L38679 22663
" />
<path d="M39201 18951
L39201 22141
" />
<path d="M38750 18500
L39201 18951
" />
</g>
<g style="fill:#00A000; fill-opacity:1.0; 
stroke:#00A000; stroke-width:157.48; stroke-opacity:1; 
stroke-linecap:round; stroke-linejoin:round;">
<path d="M44000 25500
L42000 25500
" />
</g>
<g style="fill:#A00000; fill-opacity:1.0; 
stroke:#A00000; stroke-width:100; stroke-opacity:1; 
stroke-linecap:round; stroke-linejoin:round;">
<path d="M38445 26945
L39000 27500
" />
<path d="M38445 22006
L38445 26945
" />
<path d="M38195 21756
L38445 22006
" />
<path d="M38195 18945
L38195 21756
" />
<path d="M37750 18500
L38195 18945
" />
<path d="M38222 28722
L39000 29500
" />
<path d="M38222 22447
L38222 28722
" />
<path d="M37726 21951
L38222 22447
" />
<path d="M37555 21951
L37726 21951
" />
<path d="M37256 21652
L37555 21951
" />
<path d="M37256 19006
L37256 21652
" />
<path d="M36750 18500
L37256 19006
" />
</g>
<g style="fill:#00A000; fill-opacity:1.0; 
stroke:#00A000; stroke-width:157.48; stroke-opacity:1; 
stroke-linecap:round; stroke-linejoin:round;">
<path d="M44000 29500
L42000 29500
" />
</g>
<g style="fill:#A00000; fill-opacity:1.0; 
stroke:#A00000; stroke-width:100; stroke-opacity:1; 
stroke-linecap:round; stroke-linejoin:round;">
<path d="M39000 31644
L39000 31500
" />
<path d="M37685 32958
L39000 31644
" />
<path d="M37299 32958
L37685 32958
" />
<path d="M35002 30662
L37299 32958
" />
<path d="M35002 28264
L35002 30662
" />
<path d="M34697 27959
L35002 28264
" />
<path d="M34301 27959
L34697 27959
" />
<path d="M32910 26568
L34301 27959
" />
<path d="M32910 23225
L32910 26568
" />
<path d="M31782 22097
L32910 23225
" />
<path d="M31702 22097
L31782 22097
" />
<path d="M31285 21680
L31702 22097
" />
<path d="M31285 21318
L31285 21680
" />
<path d="M31884 20719
L31285 21318
" />
<path d="M33530 20719
L31884 20719
" />
<path d="M35750 18500
L33530 20719
" />
</g>
<g style="fill:#00A000; fill-opacity:1.0; 
stroke:#00A000; stroke-width:157.48; stroke-opacity:1; 
stroke-linecap:round; stroke-linejoin:round;">
<path d="M44000 31500
L42000 31500
" />
</g>
<g style="fill:#A00000; fill-opacity:1.0; 
stroke:#A00000; stroke-width:100; stroke-opacity:1; 
stroke-linecap:round; stroke-linejoin:round;">
<path d="M36376 31376
L37500 32500
" />
<path d="M36376 28744
L36376 31376
" />
<path d="M34672 27040
L36376 28744
" />
<path d="M34312 27040
L34672 27040
" />
<path d="M33463 26191
L34312 27040
" />
<path d="M33463 23213
L33463 26191
" />
<path d="M31750 21500
L33463 23213
" />
</g>
<g style="fill:#00A000; fill-opacity:1.0; 
stroke:#00A000; stroke-width:157.48; stroke-opacity:1; 
stroke-linecap:round; stroke-linejoin:round;">
<path d="M35077 31922
L34500 32500
" />
<path d="M35077 25241
L35077 31922
" />
<path d="M34759 24923
L35077 25241
" />
<path d="M32826 24923
L34759 24923
" />
<path d="M32250 25500
L32826 24923
" />
</g>
<g style="fill:#A00000; fill-opacity:1.0; 
stroke:#A00000; stroke-width:100; stroke-opacity:1; 
stroke-linecap:round; stroke-linejoin:round;">
<path d="M36804 29804
L37500 30500
" />
<path d="M36804 27433
L36804 29804
" />
<path d="M35056 25685
L36804 27433
" />
<path d="M35056 25198
L35056 25685
" />
<path d="M33750 23891
L35056 25198
" />
<path d="M33750 22500
L33750 23891
" />
<path d="M32750 21500
L33750 22500
" />
</g>
<g style="fill:#00A000; fill-opacity:1.0; 
stroke:#00A000; stroke-width:157.48; stroke-opacity:1; 
stroke-linecap:round; stroke-linejoin:round;">
<path d="M33773 31226
L34500 30500
" />
<path d="M33773 31982
L33773 31226
" />
<path d="M32562 33193
L33773 31982
" />
<path d="M31967 33193
L32562 33193
" />
<path d="M31556 32782
L31967 33193
" />
<path d="M31556 28193
L31556 32782
" />
<path d="M32250 27500
L31556 28193
" />
</g>
<g style="fill:#A00000; fill-opacity:1.0; 
stroke:#A00000; stroke-width:100; stroke-opacity:1; 
stroke-linecap:round; stroke-linejoin:round;">
<path d="M37004 28004
L37500 28500
" />
<path d="M37004 26922
L37004 28004
" />
<path d="M35256 25175
L37004 26922
" />
<path d="M35256 25089
L35256 25175
" />
<path d="M34383 24215
L35256 25089
" />
<path d="M34383 22133
L34383 24215
" />
<path d="M33750 21500
L34383 22133
" />
</g>
<g style="fill:#A00000; fill-opacity:1.0; 
stroke:#A00000; stroke-width:157.48; stroke-opacity:1; 
stroke-linecap:round; stroke-linejoin:round;">
<path d="M33500 29500
L34500 28500
" />
<path d="M32250 29500
L33500 29500
" />
</g>
<g style="fill:#A00000; fill-opacity:1.0; 
stroke:#A00000; stroke-width:100; stroke-opacity:1; 
stroke-linecap:round; stroke-linejoin:round;">
<path d="M36951 25951
L37500 26500
" />
<path d="M36951 24296
L36951 25951
" />
<path d="M36660 24006
L36951 24296
" />
<path d="M36369 24006
L36660 24006
" />
<path d="M36048 23684
L36369 24006
" />
<path d="M36048 22279
L36048 23684
" />
<path d="M35720 21951
L36048 22279
" />
<path d="M35201 21951
L35720 21951
" />
<path d="M34750 21500
L35201 21951
" />
</g>
<g style="fill:#00A000; fill-opacity:1.0; 
stroke:#00A000; stroke-width:157.48; stroke-opacity:1; 
stroke-linecap:round; stroke-linejoin:round;">
<path d="M33458 27541
L34500 26500
" />
<path d="M33458 30291
L33458 27541
" />
<path d="M32250 31500
L33458 30291
" />
<path d="M44000 27500
L42000 27500
" />
</g>
<g style="fill:#00A000; fill-opacity:1.0; 
stroke:#00A000; stroke-width:100; stroke-opacity:1; 
stroke-linecap:round; stroke-linejoin:round;">
<path d="M38813 26000
L37897 26915
" />
<path d="M39159 26000
L38813 26000
" />
<path d="M39999 25159
L39159 26000
" />
<path d="M39999 24965
L39999 25159
" />
<path d="M42015 22950
L39999 24965
" />
<path d="M42953 22950
L42015 22950
" />
<path d="M44250 21653
L42953 22950
" />
<path d="M44250 19000
L44250 21653
" />
<path d="M44750 18500
L44250 19000
" />
</g>
<g style="fill:#A00000; fill-opacity:1.0; 
stroke:#A00000; stroke-width:100; stroke-opacity:1; 
stroke-linecap:round; stroke-linejoin:round;">
<path d="M36500 26135
L36500 24500
" />
<path d="M37322 26957
L36500 26135
" />
<path d="M37855 26957
L37322 26957
" />
<path d="M37897 26915
L37855 26957
" />
</g>
<g style="fill:#00A000; fill-opacity:1.0; 
stroke:#00A000; stroke-width:100; stroke-opacity:1; 
stroke-linecap:round; stroke-linejoin:round;">
<path d="M36951 23048
L36500 23500
" />
<path d="M36951 22066
L36951 23048
" />
<path d="M37304 21713
L36951 22066
" />
<path d="M37304 21315
L37304 21713
" />
<path d="M37699 20921
L37304 21315
" />
<path d="M41328 20921
L37699 20921
" />
<path d="M43750 18500
L41328 20921
" />
<path d="M36298 22298
L36500 22500
" />
<path d="M36298 21317
L36298 22298
" />
<path d="M38043 19572
L36298 21317
" />
<path d="M41677 19572
L38043 19572
" />
<path d="M42750 18500
L41677 19572
" />
</g>
<g style="fill:#A00000; fill-opacity:1.0; 
stroke:#A00000; stroke-width:196.85; stroke-opacity:1; 
stroke-linecap:round; stroke-linejoin:round;">
<path d="M37500 22500
L37500 23500
" />
<path d="M37500 23500
L37500 24500
" />
<path d="M37500 24500
L37500 25500
" />
</g>
<g style="fill:#00A000; fill-opacity:1.0; 
stroke:#00A000; stroke-width:196.85; stroke-opacity:1; 
stroke-linecap:round; stroke-linejoin:round;">
<path d="M37909 22090
L37500 22500
" />
<path d="M40159 22090
L37909 22090
" />
<path d="M40750 21500
L40159 22090
" />
</g>
<g style="fill:#A00000; fill-opacity:1.0; 
stroke:#A00000; stroke-width:196.85; stroke-opacity:1; 
stroke-linecap:round; stroke-linejoin:round;">
<path d="M43963 24500
L44000 24500
" />
<path d="M43289 23826
L43963 24500
" />
<path d="M43289 23195
L43289 23826
" />
<path d="M43740 22745
L43289 23195
" />
<path d="M44346 22745
L43740 22745
" />
<path d="M45352 21739
L44346 22745
" />
<path d="M45352 21250
L45352 21739
" />
<path d="M45009 20907
L45352 21250
" />
<path d="M41342 20907
L45009 20907
" />
<path d="M40750 21500
L41342 20907
" />
</g>
<g style="fill:#00A000; fill-opacity:1.0; 
stroke:#00A000; stroke-width:196.85; stroke-opacity:1; 
stroke-linecap:round; stroke-linejoin:round;">
<path d="M36908 26091
L37500 25500
" />
<path d="M36908 32762
L36908 26091
" />
<path d="M37252 33106
L36908 32762
" />
<path d="M38393 33106
L37252 33106
" />
<path d="M39000 32500
L38393 33106
" />
</g>
<g style="fill:#A00000; fill-opacity:1.0; 
stroke:#A00000; stroke-width:100; stroke-opacity:1; 
stroke-linecap:round; stroke-linejoin:round;">
<path d="M39125 23624
L39125 23625
" />
<path d="M40000 22750
L39125 23624
" />
</g>
<g style="fill:#00A000; fill-opacity:1.0; 
stroke:#00A000; stroke-width:100; stroke-opacity:1; 
stroke-linecap:round; stroke-linejoin:round;">
<path d="M40707 22042
L40000 22750
" />
<path d="M42207 22042
L40707 22042
" />
<path d="M42750 21500
L42207 22042
" />
<path d="M42500 22750
L41000 22750
" />
<path d="M43750 21500
L42500 22750
" />
<path d="M39375 24375
L39125 24375
" />
<path d="M41000 22750
L39375 24375
" />
</g>
<g style="fill:#FFFFFF; fill-opacity:1.0; 
stroke:#FFFFFF; stroke-width:39.3701; stroke-opacity:1; 
stroke-linecap:round; stroke-linejoin:round;">
<circle cx="37897.4" cy="26915.9" r="105.315" /> 
<circle cx="39000" cy="25500" r="98.4252" /> 
<circle cx="39000" cy="26500" r="98.4252" /> 
<circle cx="39000" cy="27500" r="98.4252" /> 
<circle cx="39000" cy="28500" r="98.4252" /> 
<circle cx="39000" cy="29500" r="98.4252" /> 
<circle cx="39000" cy="30500" r="98.4252" /> 
<circle cx="39000" cy="31500" r="98.4252" /> 
<circle cx="39000" cy="32500" r="98.4252" /> 
<circle cx="42000" cy="32500" r="98.4252" /> 
<circle cx="42000" cy="31500" r="98.4252" /> 
<circle cx="42000" cy="30500" r="98.4252" /> 
<circle cx="42000" cy="29500" r="98.4252" /> 
<circle cx="42000" cy="28500" r="98.4252" /> 
<circle cx="42000" cy="27500" r="98.4252" /> 
<circle cx="42000" cy="26500" r="98.4252" /> 
<circle cx="42000" cy="25500" r="98.4252" /> 
<circle cx="37500" cy="32500" r="98.4252" /> 
<circle cx="37500" cy="31500" r="98.4252" /> 
<circle cx="37500" cy="30500" r="98.4252" /> 
<circle cx="37500" cy="29500" r="98.4252" /> 
<circle cx="37500" cy="28500" r="98.4252" /> 
<circle cx="37500" cy="27500" r="98.4252" /> 
<circle cx="37500" cy="26500" r="98.4252" /> 
<circle cx="37500" cy="25500" r="98.4252" /> 
<circle cx="34500" cy="25500" r="98.4252" /> 
<circle cx="34500" cy="26500" r="98.4252" /> 
<circle cx="34500" cy="27500" r="98.4252" /> 
<circle cx="34500" cy="28500" r="98.4252" /> 
<circle cx="34500" cy="29500" r="98.4252" /> 
<circle cx="34500" cy="30500" r="98.4252" /> 
<circle cx="34500" cy="31500" r="98.4252" /> 
<circle cx="34500" cy="32500" r="98.4252" /> 
<circle cx="42125.2" cy="24375" r="98.4252" /> 
<circle cx="39125.2" cy="24375" r="98.4252" /> 
<circle cx="42125.2" cy="23625" r="98.4252" /> 
<circle cx="39125.2" cy="23625" r="98.4252" /> 
<circle cx="36500" cy="24500" r="98.4252" /> 
<circle cx="37500" cy="24500" r="98.4252" /> 
<circle cx="35500" cy="24500" r="98.4252" /> 
<circle cx="36500" cy="23500" r="98.4252" /> 
<circle cx="37500" cy="23500" r="98.4252" /> 
<circle cx="35500" cy="23500" r="98.4252" /> 
<circle cx="36500" cy="22500" r="98.4252" /> 
<circle cx="37500" cy="22500" r="98.4252" /> 
<circle cx="35500" cy="22500" r="98.4252" /> 
<circle cx="41000" cy="22750" r="98.4252" /> 
<circle cx="40000" cy="22750" r="98.4252" /> 
<circle cx="44000" cy="23500" r="137.795" /> 
<circle cx="44000" cy="24500" r="137.795" /> 
<circle cx="44000" cy="25500" r="137.795" /> 
<circle cx="44000" cy="26500" r="137.795" /> 
<circle cx="44000" cy="27500" r="137.795" /> 
<circle cx="44000" cy="28500" r="137.795" /> 
<circle cx="44000" cy="29500" r="137.795" /> 
<circle cx="44000" cy="30500" r="137.795" /> 
<circle cx="44000" cy="31500" r="137.795" /> 
<circle cx="44000" cy="32500" r="137.795" /> 
<circle cx="32250" cy="23500" r="137.795" /> 
<circle cx="32250" cy="24500" r="137.795" /> 
<circle cx="32250" cy="25500" r="137.795" /> 
<circle cx="32250" cy="26500" r="137.795" /> 
<circle cx="32250" cy="27500" r="137.795" /> 
<circle cx="32250" cy="28500" r="137.795" /> 
<circle cx="32250" cy="29500" r="137.795" /> 
<circle cx="32250" cy="30500" r="137.795" /> 
<circle cx="32250" cy="31500" r="137.795" /> 
<circle cx="32250" cy="32500" r="137.795" /> 
<circle cx="31750" cy="21500" r="98.4252" /> 
<circle cx="32750" cy="21500" r="98.4252" /> 
<circle cx="33750" cy="21500" r="98.4252" /> 
<circle cx="34750" cy="21500" r="98.4252" /> 
<circle cx="35750" cy="21500" r="98.4252" /> 
<circle cx="36750" cy="21500" r="98.4252" /> 
<circle cx="37750" cy="21500" r="98.4252" /> 
<circle cx="38750" cy="21500" r="98.4252" /> 
<circle cx="39750" cy="21500" r="98.4252" /> 
<circle cx="40750" cy="21500" r="98.4252" /> 
<circle cx="41750" cy="21500" r="98.4252" /> 
<circle cx="42750" cy="21500" r="98.4252" /> 
<circle cx="43750" cy="21500" r="98.4252" /> 
<circle cx="44750" cy="21500" r="98.4252" /> 
<circle cx="44750" cy="18500" r="98.4252" /> 
<circle cx="43750" cy="18500" r="98.4252" /> 
<circle cx="42750" cy="18500" r="98.4252" /> 
<circle cx="41750" cy="18500" r="98.4252" /> 
<circle cx="40750" cy="18500" r="98.4252" /> 
<circle cx="39750" cy="18500" r="98.4252" /> 
<circle cx="38750" cy="18500" r="98.4252" /> 
<circle cx="37750" cy="18500" r="98.4252" /> 
<circle cx="36750" cy="18500" r="98.4252" /> 
<circle cx="35750" cy="18500" r="98.4252" /> 
<circle cx="34750" cy="18500" r="98.4252" /> 
<circle cx="33750" cy="18500" r="98.4252" /> 
<circle cx="32750" cy="18500" r="98.4252" /> 
<circle cx="31750" cy="18500" r="98.4252" /> 
</g> 
</svg>
