G04 (created by PCBNEW (2013-june-11)-stable) date Fri 19 Feb 2016 10:27:21 AM CET*
%MOIN*%
G04 Gerber Fmt 3.4, Leading zero omitted, Abs format*
%FSLAX34Y34*%
G01*
G70*
G90*
G04 APERTURE LIST*
%ADD10C,0.00590551*%
%ADD11C,0.011811*%
G04 APERTURE END LIST*
G54D10*
G54D11*
X42828Y-33345D02*
X42968Y-33739D01*
X43109Y-33345D01*
X43587Y-33345D02*
X43587Y-33739D01*
X43446Y-33120D02*
X43306Y-33542D01*
X43671Y-33542D01*
X43662Y-22739D02*
X43325Y-22739D01*
X43493Y-22739D02*
X43493Y-22148D01*
X43437Y-22232D01*
X43381Y-22289D01*
X43325Y-22317D01*
X43887Y-22204D02*
X43915Y-22176D01*
X43971Y-22148D01*
X44112Y-22148D01*
X44168Y-22176D01*
X44196Y-22204D01*
X44224Y-22260D01*
X44224Y-22317D01*
X44196Y-22401D01*
X43859Y-22739D01*
X44224Y-22739D01*
X44421Y-22345D02*
X44562Y-22739D01*
X44703Y-22345D01*
X39951Y-23845D02*
X39951Y-24239D01*
X39811Y-23620D02*
X39670Y-24042D01*
X40035Y-24042D01*
X40260Y-24182D02*
X40289Y-24210D01*
X40260Y-24239D01*
X40232Y-24210D01*
X40260Y-24182D01*
X40260Y-24239D01*
X40485Y-23648D02*
X40879Y-23648D01*
X40626Y-24239D01*
X41104Y-24239D02*
X41104Y-23648D01*
X41160Y-24014D02*
X41329Y-24239D01*
X41329Y-23845D02*
X41104Y-24070D01*
X41589Y-22710D02*
X41645Y-22739D01*
X41757Y-22739D01*
X41814Y-22710D01*
X41842Y-22654D01*
X41842Y-22626D01*
X41814Y-22570D01*
X41757Y-22542D01*
X41673Y-22542D01*
X41617Y-22514D01*
X41589Y-22457D01*
X41589Y-22429D01*
X41617Y-22373D01*
X41673Y-22345D01*
X41757Y-22345D01*
X41814Y-22373D01*
X42348Y-22739D02*
X42348Y-22148D01*
X42348Y-22710D02*
X42292Y-22739D01*
X42179Y-22739D01*
X42123Y-22710D01*
X42095Y-22682D01*
X42067Y-22626D01*
X42067Y-22457D01*
X42095Y-22401D01*
X42123Y-22373D01*
X42179Y-22345D01*
X42292Y-22345D01*
X42348Y-22373D01*
X42882Y-22739D02*
X42882Y-22429D01*
X42854Y-22373D01*
X42798Y-22345D01*
X42685Y-22345D01*
X42629Y-22373D01*
X42882Y-22710D02*
X42826Y-22739D01*
X42685Y-22739D01*
X42629Y-22710D01*
X42601Y-22654D01*
X42601Y-22598D01*
X42629Y-22542D01*
X42685Y-22514D01*
X42826Y-22514D01*
X42882Y-22485D01*
X38465Y-22960D02*
X38521Y-22989D01*
X38634Y-22989D01*
X38690Y-22960D01*
X38718Y-22904D01*
X38718Y-22876D01*
X38690Y-22820D01*
X38634Y-22792D01*
X38550Y-22792D01*
X38493Y-22764D01*
X38465Y-22707D01*
X38465Y-22679D01*
X38493Y-22623D01*
X38550Y-22595D01*
X38634Y-22595D01*
X38690Y-22623D01*
X39224Y-22960D02*
X39168Y-22989D01*
X39056Y-22989D01*
X39000Y-22960D01*
X38971Y-22932D01*
X38943Y-22876D01*
X38943Y-22707D01*
X38971Y-22651D01*
X39000Y-22623D01*
X39056Y-22595D01*
X39168Y-22595D01*
X39224Y-22623D01*
X39562Y-22989D02*
X39506Y-22960D01*
X39478Y-22904D01*
X39478Y-22398D01*
X33904Y-31078D02*
X33510Y-31218D01*
X33904Y-31359D01*
X33848Y-31668D02*
X33876Y-31612D01*
X33904Y-31584D01*
X33960Y-31556D01*
X33989Y-31556D01*
X34045Y-31584D01*
X34073Y-31612D01*
X34101Y-31668D01*
X34101Y-31781D01*
X34073Y-31837D01*
X34045Y-31865D01*
X33989Y-31893D01*
X33960Y-31893D01*
X33904Y-31865D01*
X33876Y-31837D01*
X33848Y-31781D01*
X33848Y-31668D01*
X33820Y-31612D01*
X33792Y-31584D01*
X33735Y-31556D01*
X33623Y-31556D01*
X33567Y-31584D01*
X33539Y-31612D01*
X33510Y-31668D01*
X33510Y-31781D01*
X33539Y-31837D01*
X33567Y-31865D01*
X33623Y-31893D01*
X33735Y-31893D01*
X33792Y-31865D01*
X33820Y-31837D01*
X33848Y-31781D01*
X33904Y-29078D02*
X33510Y-29218D01*
X33904Y-29359D01*
X34101Y-29528D02*
X34101Y-29921D01*
X33510Y-29668D01*
X33904Y-27078D02*
X33510Y-27218D01*
X33904Y-27359D01*
X34101Y-27837D02*
X34101Y-27724D01*
X34073Y-27668D01*
X34045Y-27640D01*
X33960Y-27584D01*
X33848Y-27556D01*
X33623Y-27556D01*
X33567Y-27584D01*
X33539Y-27612D01*
X33510Y-27668D01*
X33510Y-27781D01*
X33539Y-27837D01*
X33567Y-27865D01*
X33623Y-27893D01*
X33764Y-27893D01*
X33820Y-27865D01*
X33848Y-27837D01*
X33876Y-27781D01*
X33876Y-27668D01*
X33848Y-27612D01*
X33820Y-27584D01*
X33764Y-27556D01*
X33904Y-25078D02*
X33510Y-25218D01*
X33904Y-25359D01*
X34101Y-25865D02*
X34101Y-25584D01*
X33820Y-25556D01*
X33848Y-25584D01*
X33876Y-25640D01*
X33876Y-25781D01*
X33848Y-25837D01*
X33820Y-25865D01*
X33764Y-25893D01*
X33623Y-25893D01*
X33567Y-25865D01*
X33539Y-25837D01*
X33510Y-25781D01*
X33510Y-25640D01*
X33539Y-25584D01*
X33567Y-25556D01*
X33550Y-24739D02*
X33550Y-24345D01*
X33550Y-24457D02*
X33578Y-24401D01*
X33606Y-24373D01*
X33662Y-24345D01*
X33718Y-24345D01*
X33887Y-24710D02*
X33943Y-24739D01*
X34056Y-24739D01*
X34112Y-24710D01*
X34140Y-24654D01*
X34140Y-24626D01*
X34112Y-24570D01*
X34056Y-24542D01*
X33971Y-24542D01*
X33915Y-24514D01*
X33887Y-24457D01*
X33887Y-24429D01*
X33915Y-24373D01*
X33971Y-24345D01*
X34056Y-24345D01*
X34112Y-24373D01*
X34309Y-24345D02*
X34534Y-24345D01*
X34393Y-24148D02*
X34393Y-24654D01*
X34421Y-24710D01*
X34478Y-24739D01*
X34534Y-24739D01*
X34101Y-23415D02*
X34101Y-23134D01*
X33820Y-23106D01*
X33848Y-23134D01*
X33876Y-23190D01*
X33876Y-23331D01*
X33848Y-23387D01*
X33820Y-23415D01*
X33764Y-23443D01*
X33623Y-23443D01*
X33567Y-23415D01*
X33539Y-23387D01*
X33510Y-23331D01*
X33510Y-23190D01*
X33539Y-23134D01*
X33567Y-23106D01*
X33904Y-23640D02*
X33510Y-23781D01*
X33904Y-23921D01*
X33845Y-22739D02*
X33845Y-22429D01*
X33817Y-22373D01*
X33760Y-22345D01*
X33648Y-22345D01*
X33592Y-22373D01*
X33845Y-22710D02*
X33789Y-22739D01*
X33648Y-22739D01*
X33592Y-22710D01*
X33564Y-22654D01*
X33564Y-22598D01*
X33592Y-22542D01*
X33648Y-22514D01*
X33789Y-22514D01*
X33845Y-22485D01*
X34098Y-22204D02*
X34126Y-22176D01*
X34182Y-22148D01*
X34323Y-22148D01*
X34379Y-22176D01*
X34407Y-22204D01*
X34435Y-22260D01*
X34435Y-22317D01*
X34407Y-22401D01*
X34070Y-22739D01*
X34435Y-22739D01*
X38221Y-22148D02*
X38278Y-22148D01*
X38334Y-22176D01*
X38362Y-22204D01*
X38390Y-22260D01*
X38418Y-22373D01*
X38418Y-22514D01*
X38390Y-22626D01*
X38362Y-22682D01*
X38334Y-22710D01*
X38278Y-22739D01*
X38221Y-22739D01*
X38165Y-22710D01*
X38137Y-22682D01*
X38109Y-22626D01*
X38081Y-22514D01*
X38081Y-22373D01*
X38109Y-22260D01*
X38137Y-22204D01*
X38165Y-22176D01*
X38221Y-22148D01*
X34918Y-22739D02*
X34581Y-22739D01*
X34750Y-22739D02*
X34750Y-22148D01*
X34693Y-22232D01*
X34637Y-22289D01*
X34581Y-22317D01*
G54D10*
X40500Y-33000D02*
X39000Y-33000D01*
X40000Y-25000D02*
X40000Y-25500D01*
X40000Y-25500D02*
X41000Y-25500D01*
X41000Y-25500D02*
X41000Y-25000D01*
X39000Y-25000D02*
X40500Y-25000D01*
X39000Y-25000D02*
X39000Y-33000D01*
X40500Y-33000D02*
X42000Y-33000D01*
X42000Y-33000D02*
X42000Y-25000D01*
X42000Y-25000D02*
X40500Y-25000D01*
X36000Y-25000D02*
X37500Y-25000D01*
X36500Y-33000D02*
X36500Y-32500D01*
X36500Y-32500D02*
X35500Y-32500D01*
X35500Y-32500D02*
X35500Y-33000D01*
X37500Y-33000D02*
X36000Y-33000D01*
X37500Y-33000D02*
X37500Y-25000D01*
X36000Y-25000D02*
X34500Y-25000D01*
X34500Y-25000D02*
X34500Y-33000D01*
X34500Y-33000D02*
X36000Y-33000D01*
X42779Y-22889D02*
X42779Y-24720D01*
X45220Y-22889D02*
X45220Y-24110D01*
X42779Y-33110D02*
X42779Y-23956D01*
X45220Y-33110D02*
X45220Y-23956D01*
X45220Y-33110D02*
X42779Y-33110D01*
X45220Y-22889D02*
X42779Y-22889D01*
X31029Y-22889D02*
X31029Y-24720D01*
X33470Y-22889D02*
X33470Y-24110D01*
X31029Y-33110D02*
X31029Y-23956D01*
X33470Y-33110D02*
X33470Y-23956D01*
X33470Y-33110D02*
X31029Y-33110D01*
X33470Y-22889D02*
X31029Y-22889D01*
X31250Y-20500D02*
X31750Y-20500D01*
X31750Y-20500D02*
X31750Y-19500D01*
X31750Y-19500D02*
X31250Y-19500D01*
X31250Y-20000D02*
X31250Y-21500D01*
X45250Y-20000D02*
X45250Y-21500D01*
X31250Y-21500D02*
X45250Y-21500D01*
X45250Y-20000D02*
X45250Y-18500D01*
X45250Y-18500D02*
X31250Y-18500D01*
X31250Y-18500D02*
X31250Y-20000D01*
M02*
