G04 (created by PCBNEW (2013-june-11)-stable) date Fri 19 Feb 2016 10:27:21 AM CET*
%MOIN*%
G04 Gerber Fmt 3.4, Leading zero omitted, Abs format*
%FSLAX34Y34*%
G01*
G70*
G90*
G04 APERTURE LIST*
%ADD10C,0.00590551*%
%ADD11C,0.011811*%
G04 APERTURE END LIST*
G54D10*
G54D11*
X42845Y-24092D02*
X43323Y-24092D01*
X43379Y-24064D01*
X43407Y-24035D01*
X43435Y-23979D01*
X43435Y-23895D01*
X43407Y-23839D01*
X43210Y-24092D02*
X43239Y-24035D01*
X43239Y-23923D01*
X43210Y-23867D01*
X43182Y-23839D01*
X43126Y-23811D01*
X42957Y-23811D01*
X42901Y-23839D01*
X42873Y-23867D01*
X42845Y-23923D01*
X42845Y-24035D01*
X42873Y-24092D01*
X42845Y-24373D02*
X43239Y-24373D01*
X42901Y-24373D02*
X42873Y-24401D01*
X42845Y-24457D01*
X42845Y-24542D01*
X42873Y-24598D01*
X42929Y-24626D01*
X43239Y-24626D01*
X43239Y-25160D02*
X42648Y-25160D01*
X43210Y-25160D02*
X43239Y-25104D01*
X43239Y-24992D01*
X43210Y-24935D01*
X43182Y-24907D01*
X43126Y-24879D01*
X42957Y-24879D01*
X42901Y-24907D01*
X42873Y-24935D01*
X42845Y-24992D01*
X42845Y-25104D01*
X42873Y-25160D01*
X42845Y-25328D02*
X43239Y-25468D01*
X42845Y-25609D01*
X43239Y-26143D02*
X43239Y-25806D01*
X43239Y-25974D02*
X42648Y-25974D01*
X42732Y-25918D01*
X42789Y-25862D01*
X42817Y-25806D01*
X42845Y-27078D02*
X43239Y-27218D01*
X42845Y-27359D01*
X42704Y-27556D02*
X42676Y-27584D01*
X42648Y-27640D01*
X42648Y-27781D01*
X42676Y-27837D01*
X42704Y-27865D01*
X42760Y-27893D01*
X42817Y-27893D01*
X42901Y-27865D01*
X43239Y-27528D01*
X43239Y-27893D01*
X42845Y-29078D02*
X43239Y-29218D01*
X42845Y-29359D01*
X42648Y-29528D02*
X42648Y-29893D01*
X42873Y-29696D01*
X42873Y-29781D01*
X42901Y-29837D01*
X42929Y-29865D01*
X42985Y-29893D01*
X43126Y-29893D01*
X43182Y-29865D01*
X43210Y-29837D01*
X43239Y-29781D01*
X43239Y-29612D01*
X43210Y-29556D01*
X43182Y-29528D01*
X42845Y-31078D02*
X43239Y-31218D01*
X42845Y-31359D01*
X42845Y-31837D02*
X43239Y-31837D01*
X42620Y-31696D02*
X43042Y-31556D01*
X43042Y-31921D01*
M02*
