G04 (created by PCBNEW (2013-june-11)-stable) date Fri 19 Feb 2016 10:27:21 AM CET*
%MOIN*%
G04 Gerber Fmt 3.4, Leading zero omitted, Abs format*
%FSLAX34Y34*%
G01*
G70*
G90*
G04 APERTURE LIST*
%ADD10C,0.00590551*%
%ADD11C,0.0590551*%
%ADD12C,0.0826772*%
%ADD13C,0.035*%
%ADD14C,0.019685*%
%ADD15C,0.01*%
%ADD16C,0.015748*%
G04 APERTURE END LIST*
G54D10*
G54D11*
X39000Y-25500D03*
X39000Y-26500D03*
X39000Y-27500D03*
X39000Y-28500D03*
X39000Y-29500D03*
X39000Y-30500D03*
X39000Y-31500D03*
X39000Y-32500D03*
X42000Y-32500D03*
X42000Y-31500D03*
X42000Y-30500D03*
X42000Y-29500D03*
X42000Y-28500D03*
X42000Y-27500D03*
X42000Y-26500D03*
X42000Y-25500D03*
X37500Y-32500D03*
X37500Y-31500D03*
X37500Y-30500D03*
X37500Y-29500D03*
X37500Y-28500D03*
X37500Y-27500D03*
X37500Y-26500D03*
X37500Y-25500D03*
X34500Y-25500D03*
X34500Y-26500D03*
X34500Y-27500D03*
X34500Y-28500D03*
X34500Y-29500D03*
X34500Y-30500D03*
X34500Y-31500D03*
X34500Y-32500D03*
X42125Y-24375D03*
X39125Y-24375D03*
X42125Y-23625D03*
X39125Y-23625D03*
X36500Y-24500D03*
X37500Y-24500D03*
X35500Y-24500D03*
X36500Y-23500D03*
X37500Y-23500D03*
X35500Y-23500D03*
X36500Y-22500D03*
X37500Y-22500D03*
X35500Y-22500D03*
X41000Y-22750D03*
X40000Y-22750D03*
G54D12*
X44000Y-23500D03*
X44000Y-24500D03*
X44000Y-25500D03*
X44000Y-26500D03*
X44000Y-27500D03*
X44000Y-28500D03*
X44000Y-29500D03*
X44000Y-30500D03*
X44000Y-31500D03*
X44000Y-32500D03*
X32250Y-23500D03*
X32250Y-24500D03*
X32250Y-25500D03*
X32250Y-26500D03*
X32250Y-27500D03*
X32250Y-28500D03*
X32250Y-29500D03*
X32250Y-30500D03*
X32250Y-31500D03*
X32250Y-32500D03*
G54D11*
X31750Y-21500D03*
X32750Y-21500D03*
X33750Y-21500D03*
X34750Y-21500D03*
X35750Y-21500D03*
X36750Y-21500D03*
X37750Y-21500D03*
X38750Y-21500D03*
X39750Y-21500D03*
X40750Y-21500D03*
X41750Y-21500D03*
X42750Y-21500D03*
X43750Y-21500D03*
X44750Y-21500D03*
X44750Y-18500D03*
X43750Y-18500D03*
X42750Y-18500D03*
X41750Y-18500D03*
X40750Y-18500D03*
X39750Y-18500D03*
X38750Y-18500D03*
X37750Y-18500D03*
X36750Y-18500D03*
X35750Y-18500D03*
X34750Y-18500D03*
X33750Y-18500D03*
X32750Y-18500D03*
X31750Y-18500D03*
G54D13*
X37897Y-26915D03*
G54D14*
X44714Y-25820D02*
X44035Y-26500D01*
X44714Y-24191D02*
X44714Y-25820D01*
X44023Y-23500D02*
X44714Y-24191D01*
X44000Y-23500D02*
X44023Y-23500D01*
X44035Y-26500D02*
X44000Y-26500D01*
X44000Y-28500D02*
X44044Y-28500D01*
X44708Y-27173D02*
X44035Y-26500D01*
X44708Y-27835D02*
X44708Y-27173D01*
X44044Y-28500D02*
X44708Y-27835D01*
X44712Y-29810D02*
X44023Y-30500D01*
X44712Y-29168D02*
X44712Y-29810D01*
X44044Y-28500D02*
X44712Y-29168D01*
X44708Y-31185D02*
X44023Y-30500D01*
X44708Y-31835D02*
X44708Y-31185D01*
X44044Y-32500D02*
X44708Y-31835D01*
X44000Y-32500D02*
X44044Y-32500D01*
X44023Y-30500D02*
X44000Y-30500D01*
X41190Y-33309D02*
X42000Y-32500D01*
X34459Y-33309D02*
X41190Y-33309D01*
X32968Y-31818D02*
X34459Y-33309D01*
X32286Y-32500D02*
X32968Y-31818D01*
X32250Y-32500D02*
X32286Y-32500D01*
X32278Y-30500D02*
X32250Y-30500D01*
X32968Y-31190D02*
X32278Y-30500D01*
X32968Y-31818D02*
X32968Y-31190D01*
X35500Y-22500D02*
X35500Y-23500D01*
X35500Y-23500D02*
X35500Y-24500D01*
X42125Y-23625D02*
X42125Y-24375D01*
X42125Y-23039D02*
X42125Y-23625D01*
X41188Y-22102D02*
X42125Y-23039D01*
X40352Y-22102D02*
X41188Y-22102D01*
X39750Y-21500D02*
X40352Y-22102D01*
G54D15*
X38679Y-25179D02*
X39000Y-25500D01*
X38679Y-22663D02*
X38679Y-25179D01*
X39201Y-22141D02*
X38679Y-22663D01*
X39201Y-18951D02*
X39201Y-22141D01*
X38750Y-18500D02*
X39201Y-18951D01*
X38445Y-26945D02*
X39000Y-27500D01*
X38445Y-22006D02*
X38445Y-26945D01*
X38195Y-21756D02*
X38445Y-22006D01*
X38195Y-18945D02*
X38195Y-21756D01*
X37750Y-18500D02*
X38195Y-18945D01*
X38222Y-28722D02*
X39000Y-29500D01*
X38222Y-22447D02*
X38222Y-28722D01*
X37726Y-21951D02*
X38222Y-22447D01*
X37555Y-21951D02*
X37726Y-21951D01*
X37256Y-21652D02*
X37555Y-21951D01*
X37256Y-19006D02*
X37256Y-21652D01*
X36750Y-18500D02*
X37256Y-19006D01*
X39000Y-31644D02*
X39000Y-31500D01*
X37685Y-32958D02*
X39000Y-31644D01*
X37299Y-32958D02*
X37685Y-32958D01*
X35002Y-30662D02*
X37299Y-32958D01*
X35002Y-28264D02*
X35002Y-30662D01*
X34697Y-27959D02*
X35002Y-28264D01*
X34301Y-27959D02*
X34697Y-27959D01*
X32910Y-26568D02*
X34301Y-27959D01*
X32910Y-23225D02*
X32910Y-26568D01*
X31782Y-22097D02*
X32910Y-23225D01*
X31702Y-22097D02*
X31782Y-22097D01*
X31285Y-21680D02*
X31702Y-22097D01*
X31285Y-21318D02*
X31285Y-21680D01*
X31884Y-20719D02*
X31285Y-21318D01*
X33530Y-20719D02*
X31884Y-20719D01*
X35750Y-18500D02*
X33530Y-20719D01*
X36376Y-31376D02*
X37500Y-32500D01*
X36376Y-28744D02*
X36376Y-31376D01*
X34672Y-27040D02*
X36376Y-28744D01*
X34312Y-27040D02*
X34672Y-27040D01*
X33463Y-26191D02*
X34312Y-27040D01*
X33463Y-23213D02*
X33463Y-26191D01*
X31750Y-21500D02*
X33463Y-23213D01*
X36804Y-29804D02*
X37500Y-30500D01*
X36804Y-27433D02*
X36804Y-29804D01*
X35056Y-25685D02*
X36804Y-27433D01*
X35056Y-25198D02*
X35056Y-25685D01*
X33750Y-23891D02*
X35056Y-25198D01*
X33750Y-22500D02*
X33750Y-23891D01*
X32750Y-21500D02*
X33750Y-22500D01*
X37004Y-28004D02*
X37500Y-28500D01*
X37004Y-26922D02*
X37004Y-28004D01*
X35256Y-25175D02*
X37004Y-26922D01*
X35256Y-25089D02*
X35256Y-25175D01*
X34383Y-24215D02*
X35256Y-25089D01*
X34383Y-22133D02*
X34383Y-24215D01*
X33750Y-21500D02*
X34383Y-22133D01*
G54D16*
X33500Y-29500D02*
X34500Y-28500D01*
X32250Y-29500D02*
X33500Y-29500D01*
G54D15*
X36951Y-25951D02*
X37500Y-26500D01*
X36951Y-24296D02*
X36951Y-25951D01*
X36660Y-24006D02*
X36951Y-24296D01*
X36369Y-24006D02*
X36660Y-24006D01*
X36048Y-23684D02*
X36369Y-24006D01*
X36048Y-22279D02*
X36048Y-23684D01*
X35720Y-21951D02*
X36048Y-22279D01*
X35201Y-21951D02*
X35720Y-21951D01*
X34750Y-21500D02*
X35201Y-21951D01*
X36500Y-26135D02*
X36500Y-24500D01*
X37322Y-26957D02*
X36500Y-26135D01*
X37855Y-26957D02*
X37322Y-26957D01*
X37897Y-26915D02*
X37855Y-26957D01*
G54D14*
X37500Y-22500D02*
X37500Y-23500D01*
X37500Y-23500D02*
X37500Y-24500D01*
X37500Y-24500D02*
X37500Y-25500D01*
X43963Y-24500D02*
X44000Y-24500D01*
X43289Y-23826D02*
X43963Y-24500D01*
X43289Y-23195D02*
X43289Y-23826D01*
X43740Y-22745D02*
X43289Y-23195D01*
X44346Y-22745D02*
X43740Y-22745D01*
X45352Y-21739D02*
X44346Y-22745D01*
X45352Y-21250D02*
X45352Y-21739D01*
X45009Y-20907D02*
X45352Y-21250D01*
X41342Y-20907D02*
X45009Y-20907D01*
X40750Y-21500D02*
X41342Y-20907D01*
G54D15*
X39125Y-23624D02*
X39125Y-23625D01*
X40000Y-22750D02*
X39125Y-23624D01*
M02*
