G04 (created by PCBNEW (2013-june-11)-stable) date Fri 19 Feb 2016 10:27:21 AM CET*
%MOIN*%
G04 Gerber Fmt 3.4, Leading zero omitted, Abs format*
%FSLAX34Y34*%
G01*
G70*
G90*
G04 APERTURE LIST*
%ADD10C,0.00590551*%
%ADD11C,0.0590551*%
%ADD12C,0.0826772*%
%ADD13C,0.035*%
%ADD14C,0.019685*%
%ADD15C,0.01*%
%ADD16C,0.015748*%
G04 APERTURE END LIST*
G54D10*
G54D11*
X39000Y-25500D03*
X39000Y-26500D03*
X39000Y-27500D03*
X39000Y-28500D03*
X39000Y-29500D03*
X39000Y-30500D03*
X39000Y-31500D03*
X39000Y-32500D03*
X42000Y-32500D03*
X42000Y-31500D03*
X42000Y-30500D03*
X42000Y-29500D03*
X42000Y-28500D03*
X42000Y-27500D03*
X42000Y-26500D03*
X42000Y-25500D03*
X37500Y-32500D03*
X37500Y-31500D03*
X37500Y-30500D03*
X37500Y-29500D03*
X37500Y-28500D03*
X37500Y-27500D03*
X37500Y-26500D03*
X37500Y-25500D03*
X34500Y-25500D03*
X34500Y-26500D03*
X34500Y-27500D03*
X34500Y-28500D03*
X34500Y-29500D03*
X34500Y-30500D03*
X34500Y-31500D03*
X34500Y-32500D03*
X42125Y-24375D03*
X39125Y-24375D03*
X42125Y-23625D03*
X39125Y-23625D03*
X36500Y-24500D03*
X37500Y-24500D03*
X35500Y-24500D03*
X36500Y-23500D03*
X37500Y-23500D03*
X35500Y-23500D03*
X36500Y-22500D03*
X37500Y-22500D03*
X35500Y-22500D03*
X41000Y-22750D03*
X40000Y-22750D03*
G54D12*
X44000Y-23500D03*
X44000Y-24500D03*
X44000Y-25500D03*
X44000Y-26500D03*
X44000Y-27500D03*
X44000Y-28500D03*
X44000Y-29500D03*
X44000Y-30500D03*
X44000Y-31500D03*
X44000Y-32500D03*
X32250Y-23500D03*
X32250Y-24500D03*
X32250Y-25500D03*
X32250Y-26500D03*
X32250Y-27500D03*
X32250Y-28500D03*
X32250Y-29500D03*
X32250Y-30500D03*
X32250Y-31500D03*
X32250Y-32500D03*
G54D11*
X31750Y-21500D03*
X32750Y-21500D03*
X33750Y-21500D03*
X34750Y-21500D03*
X35750Y-21500D03*
X36750Y-21500D03*
X37750Y-21500D03*
X38750Y-21500D03*
X39750Y-21500D03*
X40750Y-21500D03*
X41750Y-21500D03*
X42750Y-21500D03*
X43750Y-21500D03*
X44750Y-21500D03*
X44750Y-18500D03*
X43750Y-18500D03*
X42750Y-18500D03*
X41750Y-18500D03*
X40750Y-18500D03*
X39750Y-18500D03*
X38750Y-18500D03*
X37750Y-18500D03*
X36750Y-18500D03*
X35750Y-18500D03*
X34750Y-18500D03*
X33750Y-18500D03*
X32750Y-18500D03*
X31750Y-18500D03*
G54D13*
X37897Y-26915D03*
G54D14*
X44000Y-32500D02*
X42000Y-32500D01*
X32963Y-29179D02*
X32284Y-28500D01*
X32963Y-29841D02*
X32963Y-29179D01*
X32304Y-30500D02*
X32963Y-29841D01*
X32250Y-30500D02*
X32304Y-30500D01*
X32284Y-28500D02*
X32250Y-28500D01*
X34500Y-25500D02*
X32900Y-27099D01*
X32962Y-27161D02*
X32900Y-27099D01*
X32962Y-27821D02*
X32962Y-27161D01*
X32284Y-28500D02*
X32962Y-27821D01*
X32300Y-26500D02*
X32250Y-26500D01*
X32900Y-27099D02*
X32300Y-26500D01*
X32250Y-23500D02*
X35500Y-23500D01*
X35500Y-31922D02*
X35500Y-24500D01*
X37094Y-33516D02*
X35500Y-31922D01*
X38820Y-33516D02*
X37094Y-33516D01*
X40266Y-32070D02*
X38820Y-33516D01*
X40266Y-26233D02*
X40266Y-32070D01*
X42125Y-24375D02*
X40266Y-26233D01*
G54D15*
X31575Y-23825D02*
X32250Y-24500D01*
X31575Y-23237D02*
X31575Y-23825D01*
X32256Y-22556D02*
X31575Y-23237D01*
X34324Y-22556D02*
X32256Y-22556D01*
X35304Y-21576D02*
X34324Y-22556D01*
X35304Y-21315D02*
X35304Y-21576D01*
X37674Y-18945D02*
X35304Y-21315D01*
X41304Y-18945D02*
X37674Y-18945D01*
X41750Y-18500D02*
X41304Y-18945D01*
G54D16*
X44000Y-25500D02*
X42000Y-25500D01*
X44000Y-29500D02*
X42000Y-29500D01*
X44000Y-31500D02*
X42000Y-31500D01*
X35077Y-31922D02*
X34500Y-32500D01*
X35077Y-25241D02*
X35077Y-31922D01*
X34759Y-24923D02*
X35077Y-25241D01*
X32826Y-24923D02*
X34759Y-24923D01*
X32250Y-25500D02*
X32826Y-24923D01*
X33773Y-31226D02*
X34500Y-30500D01*
X33773Y-31982D02*
X33773Y-31226D01*
X32562Y-33193D02*
X33773Y-31982D01*
X31967Y-33193D02*
X32562Y-33193D01*
X31556Y-32782D02*
X31967Y-33193D01*
X31556Y-28193D02*
X31556Y-32782D01*
X32250Y-27500D02*
X31556Y-28193D01*
X33458Y-27541D02*
X34500Y-26500D01*
X33458Y-30291D02*
X33458Y-27541D01*
X32250Y-31500D02*
X33458Y-30291D01*
X44000Y-27500D02*
X42000Y-27500D01*
G54D15*
X38813Y-26000D02*
X37897Y-26915D01*
X39159Y-26000D02*
X38813Y-26000D01*
X39999Y-25159D02*
X39159Y-26000D01*
X39999Y-24965D02*
X39999Y-25159D01*
X42015Y-22950D02*
X39999Y-24965D01*
X42953Y-22950D02*
X42015Y-22950D01*
X44250Y-21653D02*
X42953Y-22950D01*
X44250Y-19000D02*
X44250Y-21653D01*
X44750Y-18500D02*
X44250Y-19000D01*
X36951Y-23048D02*
X36500Y-23500D01*
X36951Y-22066D02*
X36951Y-23048D01*
X37304Y-21713D02*
X36951Y-22066D01*
X37304Y-21315D02*
X37304Y-21713D01*
X37699Y-20921D02*
X37304Y-21315D01*
X41328Y-20921D02*
X37699Y-20921D01*
X43750Y-18500D02*
X41328Y-20921D01*
X36298Y-22298D02*
X36500Y-22500D01*
X36298Y-21317D02*
X36298Y-22298D01*
X38043Y-19572D02*
X36298Y-21317D01*
X41677Y-19572D02*
X38043Y-19572D01*
X42750Y-18500D02*
X41677Y-19572D01*
G54D14*
X37909Y-22090D02*
X37500Y-22500D01*
X40159Y-22090D02*
X37909Y-22090D01*
X40750Y-21500D02*
X40159Y-22090D01*
X36908Y-26091D02*
X37500Y-25500D01*
X36908Y-32762D02*
X36908Y-26091D01*
X37252Y-33106D02*
X36908Y-32762D01*
X38393Y-33106D02*
X37252Y-33106D01*
X39000Y-32500D02*
X38393Y-33106D01*
G54D15*
X40707Y-22042D02*
X40000Y-22750D01*
X42207Y-22042D02*
X40707Y-22042D01*
X42750Y-21500D02*
X42207Y-22042D01*
X42500Y-22750D02*
X41000Y-22750D01*
X43750Y-21500D02*
X42500Y-22750D01*
X39375Y-24375D02*
X39125Y-24375D01*
X41000Y-22750D02*
X39375Y-24375D01*
M02*
