M48
INCH,TZ
T1C0.024
T2C0.025
T3C0.031
%
G90
G05
T1
X31750Y-18500
X31750Y-21500
X32750Y-18500
X32750Y-21500
X33750Y-18500
X33750Y-21500
X34500Y-25500
X34500Y-26500
X34500Y-27500
X34500Y-28500
X34500Y-29500
X34500Y-30500
X34500Y-31500
X34500Y-32500
X34750Y-18500
X34750Y-21500
X35500Y-22500
X35500Y-23500
X35500Y-24500
X35750Y-18500
X35750Y-21500
X36500Y-22500
X36500Y-23500
X36500Y-24500
X36750Y-18500
X36750Y-21500
X37500Y-22500
X37500Y-23500
X37500Y-24500
X37500Y-25500
X37500Y-26500
X37500Y-27500
X37500Y-28500
X37500Y-29500
X37500Y-30500
X37500Y-31500
X37500Y-32500
X37750Y-18500
X37750Y-21500
X38750Y-18500
X38750Y-21500
X39000Y-25500
X39000Y-26500
X39000Y-27500
X39000Y-28500
X39000Y-29500
X39000Y-30500
X39000Y-31500
X39000Y-32500
X39125Y-23625
X39125Y-24375
X39750Y-18500
X39750Y-21500
X40000Y-22750
X40750Y-18500
X40750Y-21500
X41000Y-22750
X41750Y-18500
X41750Y-21500
X42000Y-25500
X42000Y-26500
X42000Y-27500
X42000Y-28500
X42000Y-29500
X42000Y-30500
X42000Y-31500
X42000Y-32500
X42125Y-23625
X42125Y-24375
X42750Y-18500
X42750Y-21500
X43750Y-18500
X43750Y-21500
X44750Y-18500
X44750Y-21500
T2
X37897Y-26916
T3
X32250Y-23500
X32250Y-24500
X32250Y-25500
X32250Y-26500
X32250Y-27500
X32250Y-28500
X32250Y-29500
X32250Y-30500
X32250Y-31500
X32250Y-32500
X44000Y-23500
X44000Y-24500
X44000Y-25500
X44000Y-26500
X44000Y-27500
X44000Y-28500
X44000Y-29500
X44000Y-30500
X44000Y-31500
X44000Y-32500
T0
M30
