G04 (created by PCBNEW (2013-june-11)-stable) date Fri 19 Feb 2016 10:27:21 AM CET*
%MOIN*%
G04 Gerber Fmt 3.4, Leading zero omitted, Abs format*
%FSLAX34Y34*%
G01*
G70*
G90*
G04 APERTURE LIST*
%ADD10C,0.00590551*%
%ADD11C,0.0590551*%
%ADD12C,0.0826772*%
G04 APERTURE END LIST*
G54D10*
G54D11*
X39000Y-25500D03*
X39000Y-26500D03*
X39000Y-27500D03*
X39000Y-28500D03*
X39000Y-29500D03*
X39000Y-30500D03*
X39000Y-31500D03*
X39000Y-32500D03*
X42000Y-32500D03*
X42000Y-31500D03*
X42000Y-30500D03*
X42000Y-29500D03*
X42000Y-28500D03*
X42000Y-27500D03*
X42000Y-26500D03*
X42000Y-25500D03*
X37500Y-32500D03*
X37500Y-31500D03*
X37500Y-30500D03*
X37500Y-29500D03*
X37500Y-28500D03*
X37500Y-27500D03*
X37500Y-26500D03*
X37500Y-25500D03*
X34500Y-25500D03*
X34500Y-26500D03*
X34500Y-27500D03*
X34500Y-28500D03*
X34500Y-29500D03*
X34500Y-30500D03*
X34500Y-31500D03*
X34500Y-32500D03*
X42125Y-24375D03*
X39125Y-24375D03*
X42125Y-23625D03*
X39125Y-23625D03*
X36500Y-24500D03*
X37500Y-24500D03*
X35500Y-24500D03*
X36500Y-23500D03*
X37500Y-23500D03*
X35500Y-23500D03*
X36500Y-22500D03*
X37500Y-22500D03*
X35500Y-22500D03*
X41000Y-22750D03*
X40000Y-22750D03*
G54D12*
X44000Y-23500D03*
X44000Y-24500D03*
X44000Y-25500D03*
X44000Y-26500D03*
X44000Y-27500D03*
X44000Y-28500D03*
X44000Y-29500D03*
X44000Y-30500D03*
X44000Y-31500D03*
X44000Y-32500D03*
X32250Y-23500D03*
X32250Y-24500D03*
X32250Y-25500D03*
X32250Y-26500D03*
X32250Y-27500D03*
X32250Y-28500D03*
X32250Y-29500D03*
X32250Y-30500D03*
X32250Y-31500D03*
X32250Y-32500D03*
G54D11*
X31750Y-21500D03*
X32750Y-21500D03*
X33750Y-21500D03*
X34750Y-21500D03*
X35750Y-21500D03*
X36750Y-21500D03*
X37750Y-21500D03*
X38750Y-21500D03*
X39750Y-21500D03*
X40750Y-21500D03*
X41750Y-21500D03*
X42750Y-21500D03*
X43750Y-21500D03*
X44750Y-21500D03*
X44750Y-18500D03*
X43750Y-18500D03*
X42750Y-18500D03*
X41750Y-18500D03*
X40750Y-18500D03*
X39750Y-18500D03*
X38750Y-18500D03*
X37750Y-18500D03*
X36750Y-18500D03*
X35750Y-18500D03*
X34750Y-18500D03*
X33750Y-18500D03*
X32750Y-18500D03*
X31750Y-18500D03*
M02*
